<svg viewBox="0 0 846 111.73584905660377" width="846" height="111.73584905660377" xmlns="http://www.w3.org/2000/svg"> <style> .rect { fill: #8600b3; stroke-width: 2px; stroke: #d24dff22; stroke-dasharray: 100; animation: dash 18s linear; animation-iteration-count: infinite; } @keyframes dash { from { stroke-dashoffset: 822; } to { stroke-dashoffset: 0; } } .rect-off { fill: #25003311; stroke-width: 0.7px; stroke: #d24dff33; } </style><rect class="rect-off" x="1" y="1" width="13.962264150943396" height="13.962264150943396"></rect><rect class="rect-off" x="1" y="16.962264150943398" width="13.962264150943396" height="13.962264150943396"></rect><rect class="rect-off" x="1" y="32.924528301886795" width="13.962264150943396" height="13.962264150943396"></rect><rect class="rect-off" x="1" y="48.886792452830186" width="13.962264150943396" height="13.962264150943396"></rect><rect class="rect-off" x="1" y="64.84905660377359" width="13.962264150943396" height="13.962264150943396"></rect><rect class="rect-off" x="1" y="80.81132075471697" width="13.962264150943396" height="13.962264150943396"></rect><rect class="rect-off" x="1" y="96.77358490566037" width="13.962264150943396" height="13.962264150943396"></rect><rect class="rect" x="16.962264150943398" y="1" width="13.962264150943396" height="13.962264150943396" style=" animation-delay: 2.390212424902294s; fill: rgba(134, 0, 179, 0.4); stroke: rgba(210, 77, 255, 0.2); "></rect><rect class="rect" x="16.962264150943398" y="16.962264150943398" width="13.962264150943396" height="13.962264150943396" style=" animation-delay: 1.042629722773281s; fill: rgba(134, 0, 179, 0.2); stroke: rgba(210, 77, 255, 0.1); "></rect><rect class="rect-off" x="16.962264150943398" y="32.924528301886795" width="13.962264150943396" height="13.962264150943396"></rect><rect class="rect-off" x="16.962264150943398" y="48.886792452830186" width="13.962264150943396" height="13.962264150943396"></rect><rect class="rect-off" x="16.962264150943398" y="64.84905660377359" width="13.962264150943396" height="13.962264150943396"></rect><rect class="rect-off" x="16.962264150943398" y="80.81132075471697" width="13.962264150943396" height="13.962264150943396"></rect><rect class="rect-off" x="16.962264150943398" y="96.77358490566037" width="13.962264150943396" height="13.962264150943396"></rect><rect class="rect" x="32.924528301886795" y="1" width="13.962264150943396" height="13.962264150943396" style=" animation-delay: 2.198058542734531s; fill: rgba(134, 0, 179, 0.6); stroke: rgba(210, 77, 255, 0.3); "></rect><rect class="rect" x="32.924528301886795" y="16.962264150943398" width="13.962264150943396" height="13.962264150943396" style=" animation-delay: 0.15583202728993362s; fill: rgba(134, 0, 179, 3.6); stroke: rgba(210, 77, 255, 1.8); "></rect><rect class="rect-off" x="32.924528301886795" y="32.924528301886795" width="13.962264150943396" height="13.962264150943396"></rect><rect class="rect-off" x="32.924528301886795" y="48.886792452830186" width="13.962264150943396" height="13.962264150943396"></rect><rect class="rect-off" x="32.924528301886795" y="64.84905660377359" width="13.962264150943396" height="13.962264150943396"></rect><rect class="rect-off" x="32.924528301886795" y="80.81132075471697" width="13.962264150943396" height="13.962264150943396"></rect><rect class="rect-off" x="32.924528301886795" y="96.77358490566037" width="13.962264150943396" height="13.962264150943396"></rect><rect class="rect-off" x="48.886792452830186" y="1" width="13.962264150943396" height="13.962264150943396"></rect><rect class="rect-off" x="48.886792452830186" y="16.962264150943398" width="13.962264150943396" height="13.962264150943396"></rect><rect class="rect" x="48.886792452830186" y="32.924528301886795" width="13.962264150943396" height="13.962264150943396" style=" animation-delay: 1.0857674774949513s; fill: rgba(134, 0, 179, 1); stroke: rgba(210, 77, 255, 0.5); "></rect><rect class="rect" x="48.886792452830186" y="48.886792452830186" width="13.962264150943396" height="13.962264150943396" style=" animation-delay: 2.5154938203767303s; fill: rgba(134, 0, 179, 0.4); stroke: rgba(210, 77, 255, 0.2); "></rect><rect class="rect-off" x="48.886792452830186" y="64.84905660377359" width="13.962264150943396" height="13.962264150943396"></rect><rect class="rect" x="48.886792452830186" y="80.81132075471697" width="13.962264150943396" height="13.962264150943396" style=" animation-delay: 0.4975013590306785s; fill: rgba(134, 0, 179, 0.2); stroke: rgba(210, 77, 255, 0.1); "></rect><rect class="rect" x="48.886792452830186" y="96.77358490566037" width="13.962264150943396" height="13.962264150943396" style=" animation-delay: 2.207835049426251s; fill: rgba(134, 0, 179, 0.2); stroke: rgba(210, 77, 255, 0.1); "></rect><rect class="rect-off" x="64.84905660377359" y="1" width="13.962264150943396" height="13.962264150943396"></rect><rect class="rect" x="64.84905660377359" y="16.962264150943398" width="13.962264150943396" height="13.962264150943396" style=" animation-delay: 0.9913193320664684s; fill: rgba(134, 0, 179, 0.2); stroke: rgba(210, 77, 255, 0.1); "></rect><rect class="rect-off" x="64.84905660377359" y="32.924528301886795" width="13.962264150943396" height="13.962264150943396"></rect><rect class="rect-off" x="64.84905660377359" y="48.886792452830186" width="13.962264150943396" height="13.962264150943396"></rect><rect class="rect-off" x="64.84905660377359" y="64.84905660377359" width="13.962264150943396" height="13.962264150943396"></rect><rect class="rect-off" x="64.84905660377359" y="80.81132075471697" width="13.962264150943396" height="13.962264150943396"></rect><rect class="rect-off" x="64.84905660377359" y="96.77358490566037" width="13.962264150943396" height="13.962264150943396"></rect><rect class="rect-off" x="80.81132075471697" y="1" width="13.962264150943396" height="13.962264150943396"></rect><rect class="rect-off" x="80.81132075471697" y="16.962264150943398" width="13.962264150943396" height="13.962264150943396"></rect><rect class="rect-off" x="80.81132075471697" y="32.924528301886795" width="13.962264150943396" height="13.962264150943396"></rect><rect class="rect-off" x="80.81132075471697" y="48.886792452830186" width="13.962264150943396" height="13.962264150943396"></rect><rect class="rect-off" x="80.81132075471697" y="64.84905660377359" width="13.962264150943396" height="13.962264150943396"></rect><rect class="rect-off" x="80.81132075471697" y="80.81132075471697" width="13.962264150943396" height="13.962264150943396"></rect><rect class="rect-off" x="80.81132075471697" y="96.77358490566037" width="13.962264150943396" height="13.962264150943396"></rect><rect class="rect-off" x="96.77358490566037" y="1" width="13.962264150943396" height="13.962264150943396"></rect><rect class="rect-off" x="96.77358490566037" y="16.962264150943398" width="13.962264150943396" height="13.962264150943396"></rect><rect class="rect-off" x="96.77358490566037" y="32.924528301886795" width="13.962264150943396" height="13.962264150943396"></rect><rect class="rect-off" x="96.77358490566037" y="48.886792452830186" width="13.962264150943396" height="13.962264150943396"></rect><rect class="rect-off" x="96.77358490566037" y="64.84905660377359" width="13.962264150943396" height="13.962264150943396"></rect><rect class="rect-off" x="96.77358490566037" y="80.81132075471697" width="13.962264150943396" height="13.962264150943396"></rect><rect class="rect-off" x="96.77358490566037" y="96.77358490566037" width="13.962264150943396" height="13.962264150943396"></rect><rect class="rect" x="112.73584905660377" y="1" width="13.962264150943396" height="13.962264150943396" style=" animation-delay: 2.1752594654885185s; fill: rgba(134, 0, 179, 0.2); stroke: rgba(210, 77, 255, 0.1); "></rect><rect class="rect-off" x="112.73584905660377" y="16.962264150943398" width="13.962264150943396" height="13.962264150943396"></rect><rect class="rect-off" x="112.73584905660377" y="32.924528301886795" width="13.962264150943396" height="13.962264150943396"></rect><rect class="rect-off" x="112.73584905660377" y="48.886792452830186" width="13.962264150943396" height="13.962264150943396"></rect><rect class="rect-off" x="112.73584905660377" y="64.84905660377359" width="13.962264150943396" height="13.962264150943396"></rect><rect class="rect" x="112.73584905660377" y="80.81132075471697" width="13.962264150943396" height="13.962264150943396" style=" animation-delay: 1.6292561526305445s; fill: rgba(134, 0, 179, 0.4); stroke: rgba(210, 77, 255, 0.2); "></rect><rect class="rect-off" x="112.73584905660377" y="96.77358490566037" width="13.962264150943396" height="13.962264150943396"></rect><rect class="rect-off" x="128.69811320754718" y="1" width="13.962264150943396" height="13.962264150943396"></rect><rect class="rect-off" x="128.69811320754718" y="16.962264150943398" width="13.962264150943396" height="13.962264150943396"></rect><rect class="rect-off" x="128.69811320754718" y="32.924528301886795" width="13.962264150943396" height="13.962264150943396"></rect><rect class="rect-off" x="128.69811320754718" y="48.886792452830186" width="13.962264150943396" height="13.962264150943396"></rect><rect class="rect-off" x="128.69811320754718" y="64.84905660377359" width="13.962264150943396" height="13.962264150943396"></rect><rect class="rect-off" x="128.69811320754718" y="80.81132075471697" width="13.962264150943396" height="13.962264150943396"></rect><rect class="rect-off" x="128.69811320754718" y="96.77358490566037" width="13.962264150943396" height="13.962264150943396"></rect><rect class="rect-off" x="144.66037735849056" y="1" width="13.962264150943396" height="13.962264150943396"></rect><rect class="rect-off" x="144.66037735849056" y="16.962264150943398" width="13.962264150943396" height="13.962264150943396"></rect><rect class="rect-off" x="144.66037735849056" y="32.924528301886795" width="13.962264150943396" height="13.962264150943396"></rect><rect class="rect-off" x="144.66037735849056" y="48.886792452830186" width="13.962264150943396" height="13.962264150943396"></rect><rect class="rect-off" x="144.66037735849056" y="64.84905660377359" width="13.962264150943396" height="13.962264150943396"></rect><rect class="rect-off" x="144.66037735849056" y="80.81132075471697" width="13.962264150943396" height="13.962264150943396"></rect><rect class="rect-off" x="144.66037735849056" y="96.77358490566037" width="13.962264150943396" height="13.962264150943396"></rect><rect class="rect-off" x="160.62264150943395" y="1" width="13.962264150943396" height="13.962264150943396"></rect><rect class="rect-off" x="160.62264150943395" y="16.962264150943398" width="13.962264150943396" height="13.962264150943396"></rect><rect class="rect-off" x="160.62264150943395" y="32.924528301886795" width="13.962264150943396" height="13.962264150943396"></rect><rect class="rect-off" x="160.62264150943395" y="48.886792452830186" width="13.962264150943396" height="13.962264150943396"></rect><rect class="rect-off" x="160.62264150943395" y="64.84905660377359" width="13.962264150943396" height="13.962264150943396"></rect><rect class="rect-off" x="160.62264150943395" y="80.81132075471697" width="13.962264150943396" height="13.962264150943396"></rect><rect class="rect-off" x="160.62264150943395" y="96.77358490566037" width="13.962264150943396" height="13.962264150943396"></rect><rect class="rect-off" x="176.58490566037736" y="1" width="13.962264150943396" height="13.962264150943396"></rect><rect class="rect-off" x="176.58490566037736" y="16.962264150943398" width="13.962264150943396" height="13.962264150943396"></rect><rect class="rect-off" x="176.58490566037736" y="32.924528301886795" width="13.962264150943396" height="13.962264150943396"></rect><rect class="rect-off" x="176.58490566037736" y="48.886792452830186" width="13.962264150943396" height="13.962264150943396"></rect><rect class="rect-off" x="176.58490566037736" y="64.84905660377359" width="13.962264150943396" height="13.962264150943396"></rect><rect class="rect-off" x="176.58490566037736" y="80.81132075471697" width="13.962264150943396" height="13.962264150943396"></rect><rect class="rect-off" x="176.58490566037736" y="96.77358490566037" width="13.962264150943396" height="13.962264150943396"></rect><rect class="rect-off" x="192.54716981132074" y="1" width="13.962264150943396" height="13.962264150943396"></rect><rect class="rect-off" x="192.54716981132074" y="16.962264150943398" width="13.962264150943396" height="13.962264150943396"></rect><rect class="rect-off" x="192.54716981132074" y="32.924528301886795" width="13.962264150943396" height="13.962264150943396"></rect><rect class="rect-off" x="192.54716981132074" y="48.886792452830186" width="13.962264150943396" height="13.962264150943396"></rect><rect class="rect-off" x="192.54716981132074" y="64.84905660377359" width="13.962264150943396" height="13.962264150943396"></rect><rect class="rect-off" x="192.54716981132074" y="80.81132075471697" width="13.962264150943396" height="13.962264150943396"></rect><rect class="rect-off" x="192.54716981132074" y="96.77358490566037" width="13.962264150943396" height="13.962264150943396"></rect><rect class="rect-off" x="208.50943396226415" y="1" width="13.962264150943396" height="13.962264150943396"></rect><rect class="rect-off" x="208.50943396226415" y="16.962264150943398" width="13.962264150943396" height="13.962264150943396"></rect><rect class="rect-off" x="208.50943396226415" y="32.924528301886795" width="13.962264150943396" height="13.962264150943396"></rect><rect class="rect-off" x="208.50943396226415" y="48.886792452830186" width="13.962264150943396" height="13.962264150943396"></rect><rect class="rect-off" x="208.50943396226415" y="64.84905660377359" width="13.962264150943396" height="13.962264150943396"></rect><rect class="rect-off" x="208.50943396226415" y="80.81132075471697" width="13.962264150943396" height="13.962264150943396"></rect><rect class="rect-off" x="208.50943396226415" y="96.77358490566037" width="13.962264150943396" height="13.962264150943396"></rect><rect class="rect-off" x="224.47169811320754" y="1" width="13.962264150943396" height="13.962264150943396"></rect><rect class="rect-off" x="224.47169811320754" y="16.962264150943398" width="13.962264150943396" height="13.962264150943396"></rect><rect class="rect-off" x="224.47169811320754" y="32.924528301886795" width="13.962264150943396" height="13.962264150943396"></rect><rect class="rect-off" x="224.47169811320754" y="48.886792452830186" width="13.962264150943396" height="13.962264150943396"></rect><rect class="rect-off" x="224.47169811320754" y="64.84905660377359" width="13.962264150943396" height="13.962264150943396"></rect><rect class="rect-off" x="224.47169811320754" y="80.81132075471697" width="13.962264150943396" height="13.962264150943396"></rect><rect class="rect-off" x="224.47169811320754" y="96.77358490566037" width="13.962264150943396" height="13.962264150943396"></rect><rect class="rect-off" x="240.43396226415095" y="1" width="13.962264150943396" height="13.962264150943396"></rect><rect class="rect-off" x="240.43396226415095" y="16.962264150943398" width="13.962264150943396" height="13.962264150943396"></rect><rect class="rect" x="240.43396226415095" y="32.924528301886795" width="13.962264150943396" height="13.962264150943396" style=" animation-delay: 2.1200206965757085s; fill: rgba(134, 0, 179, 0.6); stroke: rgba(210, 77, 255, 0.3); "></rect><rect class="rect-off" x="240.43396226415095" y="48.886792452830186" width="13.962264150943396" height="13.962264150943396"></rect><rect class="rect-off" x="240.43396226415095" y="64.84905660377359" width="13.962264150943396" height="13.962264150943396"></rect><rect class="rect-off" x="240.43396226415095" y="80.81132075471697" width="13.962264150943396" height="13.962264150943396"></rect><rect class="rect-off" x="240.43396226415095" y="96.77358490566037" width="13.962264150943396" height="13.962264150943396"></rect><rect class="rect-off" x="256.39622641509436" y="1" width="13.962264150943396" height="13.962264150943396"></rect><rect class="rect-off" x="256.39622641509436" y="16.962264150943398" width="13.962264150943396" height="13.962264150943396"></rect><rect class="rect-off" x="256.39622641509436" y="32.924528301886795" width="13.962264150943396" height="13.962264150943396"></rect><rect class="rect-off" x="256.39622641509436" y="48.886792452830186" width="13.962264150943396" height="13.962264150943396"></rect><rect class="rect-off" x="256.39622641509436" y="64.84905660377359" width="13.962264150943396" height="13.962264150943396"></rect><rect class="rect-off" x="256.39622641509436" y="80.81132075471697" width="13.962264150943396" height="13.962264150943396"></rect><rect class="rect-off" x="256.39622641509436" y="96.77358490566037" width="13.962264150943396" height="13.962264150943396"></rect><rect class="rect" x="272.35849056603774" y="1" width="13.962264150943396" height="13.962264150943396" style=" animation-delay: 0.5555048219831396s; fill: rgba(134, 0, 179, 0.2); stroke: rgba(210, 77, 255, 0.1); "></rect><rect class="rect-off" x="272.35849056603774" y="16.962264150943398" width="13.962264150943396" height="13.962264150943396"></rect><rect class="rect-off" x="272.35849056603774" y="32.924528301886795" width="13.962264150943396" height="13.962264150943396"></rect><rect class="rect-off" x="272.35849056603774" y="48.886792452830186" width="13.962264150943396" height="13.962264150943396"></rect><rect class="rect-off" x="272.35849056603774" y="64.84905660377359" width="13.962264150943396" height="13.962264150943396"></rect><rect class="rect-off" x="272.35849056603774" y="80.81132075471697" width="13.962264150943396" height="13.962264150943396"></rect><rect class="rect-off" x="272.35849056603774" y="96.77358490566037" width="13.962264150943396" height="13.962264150943396"></rect><rect class="rect-off" x="288.3207547169811" y="1" width="13.962264150943396" height="13.962264150943396"></rect><rect class="rect-off" x="288.3207547169811" y="16.962264150943398" width="13.962264150943396" height="13.962264150943396"></rect><rect class="rect-off" x="288.3207547169811" y="32.924528301886795" width="13.962264150943396" height="13.962264150943396"></rect><rect class="rect-off" x="288.3207547169811" y="48.886792452830186" width="13.962264150943396" height="13.962264150943396"></rect><rect class="rect-off" x="288.3207547169811" y="64.84905660377359" width="13.962264150943396" height="13.962264150943396"></rect><rect class="rect-off" x="288.3207547169811" y="80.81132075471697" width="13.962264150943396" height="13.962264150943396"></rect><rect class="rect-off" x="288.3207547169811" y="96.77358490566037" width="13.962264150943396" height="13.962264150943396"></rect><rect class="rect" x="304.2830188679245" y="1" width="13.962264150943396" height="13.962264150943396" style=" animation-delay: 2.350576159225545s; fill: rgba(134, 0, 179, 0.4); stroke: rgba(210, 77, 255, 0.2); "></rect><rect class="rect-off" x="304.2830188679245" y="16.962264150943398" width="13.962264150943396" height="13.962264150943396"></rect><rect class="rect-off" x="304.2830188679245" y="32.924528301886795" width="13.962264150943396" height="13.962264150943396"></rect><rect class="rect-off" x="304.2830188679245" y="48.886792452830186" width="13.962264150943396" height="13.962264150943396"></rect><rect class="rect-off" x="304.2830188679245" y="64.84905660377359" width="13.962264150943396" height="13.962264150943396"></rect><rect class="rect" x="304.2830188679245" y="80.81132075471697" width="13.962264150943396" height="13.962264150943396" style=" animation-delay: 0.18848525347045975s; fill: rgba(134, 0, 179, 0.2); stroke: rgba(210, 77, 255, 0.1); "></rect><rect class="rect" x="304.2830188679245" y="96.77358490566037" width="13.962264150943396" height="13.962264150943396" style=" animation-delay: 2.2755289450430327s; fill: rgba(134, 0, 179, 0.4); stroke: rgba(210, 77, 255, 0.2); "></rect><rect class="rect" x="320.2452830188679" y="1" width="13.962264150943396" height="13.962264150943396" style=" animation-delay: 1.8976608940974713s; fill: rgba(134, 0, 179, 14.2); stroke: rgba(210, 77, 255, 7.1); "></rect><rect class="rect-off" x="320.2452830188679" y="16.962264150943398" width="13.962264150943396" height="13.962264150943396"></rect><rect class="rect" x="320.2452830188679" y="32.924528301886795" width="13.962264150943396" height="13.962264150943396" style=" animation-delay: 1.6589694968254083s; fill: rgba(134, 0, 179, 0.6); stroke: rgba(210, 77, 255, 0.3); "></rect><rect class="rect-off" x="320.2452830188679" y="48.886792452830186" width="13.962264150943396" height="13.962264150943396"></rect><rect class="rect" x="320.2452830188679" y="64.84905660377359" width="13.962264150943396" height="13.962264150943396" style=" animation-delay: 2.9881492217686763s; fill: rgba(134, 0, 179, 0.2); stroke: rgba(210, 77, 255, 0.1); "></rect><rect class="rect-off" x="320.2452830188679" y="80.81132075471697" width="13.962264150943396" height="13.962264150943396"></rect><rect class="rect" x="320.2452830188679" y="96.77358490566037" width="13.962264150943396" height="13.962264150943396" style=" animation-delay: 1.2412398232054418s; fill: rgba(134, 0, 179, 0.2); stroke: rgba(210, 77, 255, 0.1); "></rect><rect class="rect-off" x="336.20754716981133" y="1" width="13.962264150943396" height="13.962264150943396"></rect><rect class="rect-off" x="336.20754716981133" y="16.962264150943398" width="13.962264150943396" height="13.962264150943396"></rect><rect class="rect-off" x="336.20754716981133" y="32.924528301886795" width="13.962264150943396" height="13.962264150943396"></rect><rect class="rect" x="336.20754716981133" y="48.886792452830186" width="13.962264150943396" height="13.962264150943396" style=" animation-delay: 2.5390936058097946s; fill: rgba(134, 0, 179, 0.4); stroke: rgba(210, 77, 255, 0.2); "></rect><rect class="rect" x="336.20754716981133" y="64.84905660377359" width="13.962264150943396" height="13.962264150943396" style=" animation-delay: 0.048145189917434106s; fill: rgba(134, 0, 179, 0.4); stroke: rgba(210, 77, 255, 0.2); "></rect><rect class="rect" x="336.20754716981133" y="80.81132075471697" width="13.962264150943396" height="13.962264150943396" style=" animation-delay: 1.6151684523397805s; fill: rgba(134, 0, 179, 0.4); stroke: rgba(210, 77, 255, 0.2); "></rect><rect class="rect" x="336.20754716981133" y="96.77358490566037" width="13.962264150943396" height="13.962264150943396" style=" animation-delay: 2.030822441701572s; fill: rgba(134, 0, 179, 0.4); stroke: rgba(210, 77, 255, 0.2); "></rect><rect class="rect" x="352.1698113207547" y="1" width="13.962264150943396" height="13.962264150943396" style=" animation-delay: 0.6162232384826323s; fill: rgba(134, 0, 179, 2); stroke: rgba(210, 77, 255, 1); "></rect><rect class="rect" x="352.1698113207547" y="16.962264150943398" width="13.962264150943396" height="13.962264150943396" style=" animation-delay: 2.7444668243691064s; fill: rgba(134, 0, 179, 1.2); stroke: rgba(210, 77, 255, 0.6); "></rect><rect class="rect" x="352.1698113207547" y="32.924528301886795" width="13.962264150943396" height="13.962264150943396" style=" animation-delay: 0.4880500906236218s; fill: rgba(134, 0, 179, 0.8); stroke: rgba(210, 77, 255, 0.4); "></rect><rect class="rect" x="352.1698113207547" y="48.886792452830186" width="13.962264150943396" height="13.962264150943396" style=" animation-delay: 1.1088965943127236s; fill: rgba(134, 0, 179, 0.6); stroke: rgba(210, 77, 255, 0.3); "></rect><rect class="rect-off" x="352.1698113207547" y="64.84905660377359" width="13.962264150943396" height="13.962264150943396"></rect><rect class="rect-off" x="352.1698113207547" y="80.81132075471697" width="13.962264150943396" height="13.962264150943396"></rect><rect class="rect-off" x="352.1698113207547" y="96.77358490566037" width="13.962264150943396" height="13.962264150943396"></rect><rect class="rect-off" x="368.1320754716981" y="1" width="13.962264150943396" height="13.962264150943396"></rect><rect class="rect-off" x="368.1320754716981" y="16.962264150943398" width="13.962264150943396" height="13.962264150943396"></rect><rect class="rect-off" x="368.1320754716981" y="32.924528301886795" width="13.962264150943396" height="13.962264150943396"></rect><rect class="rect-off" x="368.1320754716981" y="48.886792452830186" width="13.962264150943396" height="13.962264150943396"></rect><rect class="rect-off" x="368.1320754716981" y="64.84905660377359" width="13.962264150943396" height="13.962264150943396"></rect><rect class="rect-off" x="368.1320754716981" y="80.81132075471697" width="13.962264150943396" height="13.962264150943396"></rect><rect class="rect-off" x="368.1320754716981" y="96.77358490566037" width="13.962264150943396" height="13.962264150943396"></rect><rect class="rect-off" x="384.0943396226415" y="1" width="13.962264150943396" height="13.962264150943396"></rect><rect class="rect-off" x="384.0943396226415" y="16.962264150943398" width="13.962264150943396" height="13.962264150943396"></rect><rect class="rect-off" x="384.0943396226415" y="32.924528301886795" width="13.962264150943396" height="13.962264150943396"></rect><rect class="rect-off" x="384.0943396226415" y="48.886792452830186" width="13.962264150943396" height="13.962264150943396"></rect><rect class="rect-off" x="384.0943396226415" y="64.84905660377359" width="13.962264150943396" height="13.962264150943396"></rect><rect class="rect-off" x="384.0943396226415" y="80.81132075471697" width="13.962264150943396" height="13.962264150943396"></rect><rect class="rect" x="384.0943396226415" y="96.77358490566037" width="13.962264150943396" height="13.962264150943396" style=" animation-delay: 1.078989804384713s; fill: rgba(134, 0, 179, 0.4); stroke: rgba(210, 77, 255, 0.2); "></rect><rect class="rect" x="400.05660377358487" y="1" width="13.962264150943396" height="13.962264150943396" style=" animation-delay: 1.1468100744748613s; fill: rgba(134, 0, 179, 0.8); stroke: rgba(210, 77, 255, 0.4); "></rect><rect class="rect-off" x="400.05660377358487" y="16.962264150943398" width="13.962264150943396" height="13.962264150943396"></rect><rect class="rect" x="400.05660377358487" y="32.924528301886795" width="13.962264150943396" height="13.962264150943396" style=" animation-delay: 0.4655700099465394s; fill: rgba(134, 0, 179, 0.2); stroke: rgba(210, 77, 255, 0.1); "></rect><rect class="rect" x="400.05660377358487" y="48.886792452830186" width="13.962264150943396" height="13.962264150943396" style=" animation-delay: 1.2244424271912826s; fill: rgba(134, 0, 179, 0.6); stroke: rgba(210, 77, 255, 0.3); "></rect><rect class="rect-off" x="400.05660377358487" y="64.84905660377359" width="13.962264150943396" height="13.962264150943396"></rect><rect class="rect" x="400.05660377358487" y="80.81132075471697" width="13.962264150943396" height="13.962264150943396" style=" animation-delay: 2.837017801336108s; fill: rgba(134, 0, 179, 0.2); stroke: rgba(210, 77, 255, 0.1); "></rect><rect class="rect" x="400.05660377358487" y="96.77358490566037" width="13.962264150943396" height="13.962264150943396" style=" animation-delay: 1.4920738561414142s; fill: rgba(134, 0, 179, 0.2); stroke: rgba(210, 77, 255, 0.1); "></rect><rect class="rect" x="416.0188679245283" y="1" width="13.962264150943396" height="13.962264150943396" style=" animation-delay: 0.00036140148706342856s; fill: rgba(134, 0, 179, 0.2); stroke: rgba(210, 77, 255, 0.1); "></rect><rect class="rect" x="416.0188679245283" y="16.962264150943398" width="13.962264150943396" height="13.962264150943396" style=" animation-delay: 1.9270745000935985s; fill: rgba(134, 0, 179, 0.4); stroke: rgba(210, 77, 255, 0.2); "></rect><rect class="rect" x="416.0188679245283" y="32.924528301886795" width="13.962264150943396" height="13.962264150943396" style=" animation-delay: 1.7500438184383322s; fill: rgba(134, 0, 179, 2); stroke: rgba(210, 77, 255, 1); "></rect><rect class="rect" x="416.0188679245283" y="48.886792452830186" width="13.962264150943396" height="13.962264150943396" style=" animation-delay: 1.4293399875151622s; fill: rgba(134, 0, 179, 1.4); stroke: rgba(210, 77, 255, 0.7); "></rect><rect class="rect-off" x="416.0188679245283" y="64.84905660377359" width="13.962264150943396" height="13.962264150943396"></rect><rect class="rect" x="416.0188679245283" y="80.81132075471697" width="13.962264150943396" height="13.962264150943396" style=" animation-delay: 2.933793100018517s; fill: rgba(134, 0, 179, 1.2); stroke: rgba(210, 77, 255, 0.6); "></rect><rect class="rect" x="416.0188679245283" y="96.77358490566037" width="13.962264150943396" height="13.962264150943396" style=" animation-delay: 2.567250375686382s; fill: rgba(134, 0, 179, 0.6); stroke: rgba(210, 77, 255, 0.3); "></rect><rect class="rect-off" x="431.9811320754717" y="1" width="13.962264150943396" height="13.962264150943396"></rect><rect class="rect" x="431.9811320754717" y="16.962264150943398" width="13.962264150943396" height="13.962264150943396" style=" animation-delay: 1.1606627436162966s; fill: rgba(134, 0, 179, 0.2); stroke: rgba(210, 77, 255, 0.1); "></rect><rect class="rect-off" x="431.9811320754717" y="32.924528301886795" width="13.962264150943396" height="13.962264150943396"></rect><rect class="rect-off" x="431.9811320754717" y="48.886792452830186" width="13.962264150943396" height="13.962264150943396"></rect><rect class="rect" x="431.9811320754717" y="64.84905660377359" width="13.962264150943396" height="13.962264150943396" style=" animation-delay: 0.4215544255662933s; fill: rgba(134, 0, 179, 0.4); stroke: rgba(210, 77, 255, 0.2); "></rect><rect class="rect-off" x="431.9811320754717" y="80.81132075471697" width="13.962264150943396" height="13.962264150943396"></rect><rect class="rect" x="431.9811320754717" y="96.77358490566037" width="13.962264150943396" height="13.962264150943396" style=" animation-delay: 2.5249849290390127s; fill: rgba(134, 0, 179, 0.4); stroke: rgba(210, 77, 255, 0.2); "></rect><rect class="rect-off" x="447.9433962264151" y="1" width="13.962264150943396" height="13.962264150943396"></rect><rect class="rect" x="447.9433962264151" y="16.962264150943398" width="13.962264150943396" height="13.962264150943396" style=" animation-delay: 1.009127009531223s; fill: rgba(134, 0, 179, 0.2); stroke: rgba(210, 77, 255, 0.1); "></rect><rect class="rect" x="447.9433962264151" y="32.924528301886795" width="13.962264150943396" height="13.962264150943396" style=" animation-delay: 0.6690125658484274s; fill: rgba(134, 0, 179, 0.6); stroke: rgba(210, 77, 255, 0.3); "></rect><rect class="rect-off" x="447.9433962264151" y="48.886792452830186" width="13.962264150943396" height="13.962264150943396"></rect><rect class="rect-off" x="447.9433962264151" y="64.84905660377359" width="13.962264150943396" height="13.962264150943396"></rect><rect class="rect" x="447.9433962264151" y="80.81132075471697" width="13.962264150943396" height="13.962264150943396" style=" animation-delay: 2.93082961403749s; fill: rgba(134, 0, 179, 0.2); stroke: rgba(210, 77, 255, 0.1); "></rect><rect class="rect" x="447.9433962264151" y="96.77358490566037" width="13.962264150943396" height="13.962264150943396" style=" animation-delay: 2.927781783291754s; fill: rgba(134, 0, 179, 0.6); stroke: rgba(210, 77, 255, 0.3); "></rect><rect class="rect" x="463.90566037735846" y="1" width="13.962264150943396" height="13.962264150943396" style=" animation-delay: 2.8149708341552477s; fill: rgba(134, 0, 179, 0.4); stroke: rgba(210, 77, 255, 0.2); "></rect><rect class="rect-off" x="463.90566037735846" y="16.962264150943398" width="13.962264150943396" height="13.962264150943396"></rect><rect class="rect-off" x="463.90566037735846" y="32.924528301886795" width="13.962264150943396" height="13.962264150943396"></rect><rect class="rect-off" x="463.90566037735846" y="48.886792452830186" width="13.962264150943396" height="13.962264150943396"></rect><rect class="rect-off" x="463.90566037735846" y="64.84905660377359" width="13.962264150943396" height="13.962264150943396"></rect><rect class="rect-off" x="463.90566037735846" y="80.81132075471697" width="13.962264150943396" height="13.962264150943396"></rect><rect class="rect-off" x="463.90566037735846" y="96.77358490566037" width="13.962264150943396" height="13.962264150943396"></rect><rect class="rect-off" x="479.8679245283019" y="1" width="13.962264150943396" height="13.962264150943396"></rect><rect class="rect-off" x="479.8679245283019" y="16.962264150943398" width="13.962264150943396" height="13.962264150943396"></rect><rect class="rect-off" x="479.8679245283019" y="32.924528301886795" width="13.962264150943396" height="13.962264150943396"></rect><rect class="rect" x="479.8679245283019" y="48.886792452830186" width="13.962264150943396" height="13.962264150943396" style=" animation-delay: 2.07264508853169s; fill: rgba(134, 0, 179, 0.2); stroke: rgba(210, 77, 255, 0.1); "></rect><rect class="rect-off" x="479.8679245283019" y="64.84905660377359" width="13.962264150943396" height="13.962264150943396"></rect><rect class="rect-off" x="479.8679245283019" y="80.81132075471697" width="13.962264150943396" height="13.962264150943396"></rect><rect class="rect" x="479.8679245283019" y="96.77358490566037" width="13.962264150943396" height="13.962264150943396" style=" animation-delay: 2.3031776608654386s; fill: rgba(134, 0, 179, 0.2); stroke: rgba(210, 77, 255, 0.1); "></rect><rect class="rect-off" x="495.8301886792453" y="1" width="13.962264150943396" height="13.962264150943396"></rect><rect class="rect-off" x="495.8301886792453" y="16.962264150943398" width="13.962264150943396" height="13.962264150943396"></rect><rect class="rect-off" x="495.8301886792453" y="32.924528301886795" width="13.962264150943396" height="13.962264150943396"></rect><rect class="rect-off" x="495.8301886792453" y="48.886792452830186" width="13.962264150943396" height="13.962264150943396"></rect><rect class="rect-off" x="495.8301886792453" y="64.84905660377359" width="13.962264150943396" height="13.962264150943396"></rect><rect class="rect-off" x="495.8301886792453" y="80.81132075471697" width="13.962264150943396" height="13.962264150943396"></rect><rect class="rect-off" x="495.8301886792453" y="96.77358490566037" width="13.962264150943396" height="13.962264150943396"></rect><rect class="rect-off" x="511.79245283018867" y="1" width="13.962264150943396" height="13.962264150943396"></rect><rect class="rect-off" x="511.79245283018867" y="16.962264150943398" width="13.962264150943396" height="13.962264150943396"></rect><rect class="rect-off" x="511.79245283018867" y="32.924528301886795" width="13.962264150943396" height="13.962264150943396"></rect><rect class="rect-off" x="511.79245283018867" y="48.886792452830186" width="13.962264150943396" height="13.962264150943396"></rect><rect class="rect" x="511.79245283018867" y="64.84905660377359" width="13.962264150943396" height="13.962264150943396" style=" animation-delay: 1.3516820767179725s; fill: rgba(134, 0, 179, 0.2); stroke: rgba(210, 77, 255, 0.1); "></rect><rect class="rect-off" x="511.79245283018867" y="80.81132075471697" width="13.962264150943396" height="13.962264150943396"></rect><rect class="rect-off" x="511.79245283018867" y="96.77358490566037" width="13.962264150943396" height="13.962264150943396"></rect><rect class="rect-off" x="527.7547169811321" y="1" width="13.962264150943396" height="13.962264150943396"></rect><rect class="rect-off" x="527.7547169811321" y="16.962264150943398" width="13.962264150943396" height="13.962264150943396"></rect><rect class="rect-off" x="527.7547169811321" y="32.924528301886795" width="13.962264150943396" height="13.962264150943396"></rect><rect class="rect-off" x="527.7547169811321" y="48.886792452830186" width="13.962264150943396" height="13.962264150943396"></rect><rect class="rect-off" x="527.7547169811321" y="64.84905660377359" width="13.962264150943396" height="13.962264150943396"></rect><rect class="rect-off" x="527.7547169811321" y="80.81132075471697" width="13.962264150943396" height="13.962264150943396"></rect><rect class="rect-off" x="527.7547169811321" y="96.77358490566037" width="13.962264150943396" height="13.962264150943396"></rect><rect class="rect-off" x="543.7169811320755" y="1" width="13.962264150943396" height="13.962264150943396"></rect><rect class="rect-off" x="543.7169811320755" y="16.962264150943398" width="13.962264150943396" height="13.962264150943396"></rect><rect class="rect-off" x="543.7169811320755" y="32.924528301886795" width="13.962264150943396" height="13.962264150943396"></rect><rect class="rect-off" x="543.7169811320755" y="48.886792452830186" width="13.962264150943396" height="13.962264150943396"></rect><rect class="rect-off" x="543.7169811320755" y="64.84905660377359" width="13.962264150943396" height="13.962264150943396"></rect><rect class="rect-off" x="543.7169811320755" y="80.81132075471697" width="13.962264150943396" height="13.962264150943396"></rect><rect class="rect-off" x="543.7169811320755" y="96.77358490566037" width="13.962264150943396" height="13.962264150943396"></rect><rect class="rect-off" x="559.6792452830189" y="1" width="13.962264150943396" height="13.962264150943396"></rect><rect class="rect-off" x="559.6792452830189" y="16.962264150943398" width="13.962264150943396" height="13.962264150943396"></rect><rect class="rect-off" x="559.6792452830189" y="32.924528301886795" width="13.962264150943396" height="13.962264150943396"></rect><rect class="rect-off" x="559.6792452830189" y="48.886792452830186" width="13.962264150943396" height="13.962264150943396"></rect><rect class="rect-off" x="559.6792452830189" y="64.84905660377359" width="13.962264150943396" height="13.962264150943396"></rect><rect class="rect-off" x="559.6792452830189" y="80.81132075471697" width="13.962264150943396" height="13.962264150943396"></rect><rect class="rect-off" x="559.6792452830189" y="96.77358490566037" width="13.962264150943396" height="13.962264150943396"></rect><rect class="rect-off" x="575.6415094339623" y="1" width="13.962264150943396" height="13.962264150943396"></rect><rect class="rect-off" x="575.6415094339623" y="16.962264150943398" width="13.962264150943396" height="13.962264150943396"></rect><rect class="rect" x="575.6415094339623" y="32.924528301886795" width="13.962264150943396" height="13.962264150943396" style=" animation-delay: 1.8106649555660963s; fill: rgba(134, 0, 179, 1); stroke: rgba(210, 77, 255, 0.5); "></rect><rect class="rect-off" x="575.6415094339623" y="48.886792452830186" width="13.962264150943396" height="13.962264150943396"></rect><rect class="rect-off" x="575.6415094339623" y="64.84905660377359" width="13.962264150943396" height="13.962264150943396"></rect><rect class="rect" x="575.6415094339623" y="80.81132075471697" width="13.962264150943396" height="13.962264150943396" style=" animation-delay: 1.7201294234721105s; fill: rgba(134, 0, 179, 1); stroke: rgba(210, 77, 255, 0.5); "></rect><rect class="rect-off" x="575.6415094339623" y="96.77358490566037" width="13.962264150943396" height="13.962264150943396"></rect><rect class="rect" x="591.6037735849056" y="1" width="13.962264150943396" height="13.962264150943396" style=" animation-delay: 0.9724106863486262s; fill: rgba(134, 0, 179, 0.4); stroke: rgba(210, 77, 255, 0.2); "></rect><rect class="rect" x="591.6037735849056" y="16.962264150943398" width="13.962264150943396" height="13.962264150943396" style=" animation-delay: 0.5041769452649787s; fill: rgba(134, 0, 179, 0.2); stroke: rgba(210, 77, 255, 0.1); "></rect><rect class="rect" x="591.6037735849056" y="32.924528301886795" width="13.962264150943396" height="13.962264150943396" style=" animation-delay: 0.39011598104800793s; fill: rgba(134, 0, 179, 1.4); stroke: rgba(210, 77, 255, 0.7); "></rect><rect class="rect" x="591.6037735849056" y="48.886792452830186" width="13.962264150943396" height="13.962264150943396" style=" animation-delay: 0.15901137497592366s; fill: rgba(134, 0, 179, 1.2); stroke: rgba(210, 77, 255, 0.6); "></rect><rect class="rect" x="591.6037735849056" y="64.84905660377359" width="13.962264150943396" height="13.962264150943396" style=" animation-delay: 1.4397573480406962s; fill: rgba(134, 0, 179, 0.6); stroke: rgba(210, 77, 255, 0.3); "></rect><rect class="rect" x="591.6037735849056" y="80.81132075471697" width="13.962264150943396" height="13.962264150943396" style=" animation-delay: 0.889311875208791s; fill: rgba(134, 0, 179, 5.2); stroke: rgba(210, 77, 255, 2.6); "></rect><rect class="rect-off" x="591.6037735849056" y="96.77358490566037" width="13.962264150943396" height="13.962264150943396"></rect><rect class="rect-off" x="607.566037735849" y="1" width="13.962264150943396" height="13.962264150943396"></rect><rect class="rect" x="607.566037735849" y="16.962264150943398" width="13.962264150943396" height="13.962264150943396" style=" animation-delay: 2.7621699048407304s; fill: rgba(134, 0, 179, 0.4); stroke: rgba(210, 77, 255, 0.2); "></rect><rect class="rect-off" x="607.566037735849" y="32.924528301886795" width="13.962264150943396" height="13.962264150943396"></rect><rect class="rect-off" x="607.566037735849" y="48.886792452830186" width="13.962264150943396" height="13.962264150943396"></rect><rect class="rect" x="607.566037735849" y="64.84905660377359" width="13.962264150943396" height="13.962264150943396" style=" animation-delay: 2.9859546552470144s; fill: rgba(134, 0, 179, 0.6); stroke: rgba(210, 77, 255, 0.3); "></rect><rect class="rect" x="607.566037735849" y="80.81132075471697" width="13.962264150943396" height="13.962264150943396" style=" animation-delay: 0.6287259322658467s; fill: rgba(134, 0, 179, 0.8); stroke: rgba(210, 77, 255, 0.4); "></rect><rect class="rect" x="607.566037735849" y="96.77358490566037" width="13.962264150943396" height="13.962264150943396" style=" animation-delay: 0.31935983174915794s; fill: rgba(134, 0, 179, 0.2); stroke: rgba(210, 77, 255, 0.1); "></rect><rect class="rect-off" x="623.5283018867924" y="1" width="13.962264150943396" height="13.962264150943396"></rect><rect class="rect" x="623.5283018867924" y="16.962264150943398" width="13.962264150943396" height="13.962264150943396" style=" animation-delay: 0.518449191271086s; fill: rgba(134, 0, 179, 0.6); stroke: rgba(210, 77, 255, 0.3); "></rect><rect class="rect" x="623.5283018867924" y="32.924528301886795" width="13.962264150943396" height="13.962264150943396" style=" animation-delay: 2.0106724944909526s; fill: rgba(134, 0, 179, 2.2); stroke: rgba(210, 77, 255, 1.1); "></rect><rect class="rect" x="623.5283018867924" y="48.886792452830186" width="13.962264150943396" height="13.962264150943396" style=" animation-delay: 1.3132698877161955s; fill: rgba(134, 0, 179, 0.2); stroke: rgba(210, 77, 255, 0.1); "></rect><rect class="rect-off" x="623.5283018867924" y="64.84905660377359" width="13.962264150943396" height="13.962264150943396"></rect><rect class="rect" x="623.5283018867924" y="80.81132075471697" width="13.962264150943396" height="13.962264150943396" style=" animation-delay: 0.7234228489256651s; fill: rgba(134, 0, 179, 0.4); stroke: rgba(210, 77, 255, 0.2); "></rect><rect class="rect-off" x="623.5283018867924" y="96.77358490566037" width="13.962264150943396" height="13.962264150943396"></rect><rect class="rect-off" x="639.4905660377358" y="1" width="13.962264150943396" height="13.962264150943396"></rect><rect class="rect-off" x="639.4905660377358" y="16.962264150943398" width="13.962264150943396" height="13.962264150943396"></rect><rect class="rect-off" x="639.4905660377358" y="32.924528301886795" width="13.962264150943396" height="13.962264150943396"></rect><rect class="rect-off" x="639.4905660377358" y="48.886792452830186" width="13.962264150943396" height="13.962264150943396"></rect><rect class="rect" x="639.4905660377358" y="64.84905660377359" width="13.962264150943396" height="13.962264150943396" style=" animation-delay: 0.9750159214167409s; fill: rgba(134, 0, 179, 0.6); stroke: rgba(210, 77, 255, 0.3); "></rect><rect class="rect" x="639.4905660377358" y="80.81132075471697" width="13.962264150943396" height="13.962264150943396" style=" animation-delay: 1.7635238072183763s; fill: rgba(134, 0, 179, 1.2); stroke: rgba(210, 77, 255, 0.6); "></rect><rect class="rect-off" x="639.4905660377358" y="96.77358490566037" width="13.962264150943396" height="13.962264150943396"></rect><rect class="rect" x="655.4528301886792" y="1" width="13.962264150943396" height="13.962264150943396" style=" animation-delay: 1.4284696830415595s; fill: rgba(134, 0, 179, 0.2); stroke: rgba(210, 77, 255, 0.1); "></rect><rect class="rect" x="655.4528301886792" y="16.962264150943398" width="13.962264150943396" height="13.962264150943396" style=" animation-delay: 2.6655897082785724s; fill: rgba(134, 0, 179, 1.2); stroke: rgba(210, 77, 255, 0.6); "></rect><rect class="rect-off" x="655.4528301886792" y="32.924528301886795" width="13.962264150943396" height="13.962264150943396"></rect><rect class="rect-off" x="655.4528301886792" y="48.886792452830186" width="13.962264150943396" height="13.962264150943396"></rect><rect class="rect-off" x="655.4528301886792" y="64.84905660377359" width="13.962264150943396" height="13.962264150943396"></rect><rect class="rect-off" x="655.4528301886792" y="80.81132075471697" width="13.962264150943396" height="13.962264150943396"></rect><rect class="rect-off" x="655.4528301886792" y="96.77358490566037" width="13.962264150943396" height="13.962264150943396"></rect><rect class="rect-off" x="671.4150943396227" y="1" width="13.962264150943396" height="13.962264150943396"></rect><rect class="rect-off" x="671.4150943396227" y="16.962264150943398" width="13.962264150943396" height="13.962264150943396"></rect><rect class="rect-off" x="671.4150943396227" y="32.924528301886795" width="13.962264150943396" height="13.962264150943396"></rect><rect class="rect-off" x="671.4150943396227" y="48.886792452830186" width="13.962264150943396" height="13.962264150943396"></rect><rect class="rect" x="671.4150943396227" y="64.84905660377359" width="13.962264150943396" height="13.962264150943396" style=" animation-delay: 0.6872926804374795s; fill: rgba(134, 0, 179, 0.6); stroke: rgba(210, 77, 255, 0.3); "></rect><rect class="rect" x="671.4150943396227" y="80.81132075471697" width="13.962264150943396" height="13.962264150943396" style=" animation-delay: 2.5221998899943747s; fill: rgba(134, 0, 179, 0.8); stroke: rgba(210, 77, 255, 0.4); "></rect><rect class="rect-off" x="671.4150943396227" y="96.77358490566037" width="13.962264150943396" height="13.962264150943396"></rect><rect class="rect-off" x="687.377358490566" y="1" width="13.962264150943396" height="13.962264150943396"></rect><rect class="rect" x="687.377358490566" y="16.962264150943398" width="13.962264150943396" height="13.962264150943396" style=" animation-delay: 0.8594257749486667s; fill: rgba(134, 0, 179, 0.2); stroke: rgba(210, 77, 255, 0.1); "></rect><rect class="rect" x="687.377358490566" y="32.924528301886795" width="13.962264150943396" height="13.962264150943396" style=" animation-delay: 0.21015807172740764s; fill: rgba(134, 0, 179, 0.4); stroke: rgba(210, 77, 255, 0.2); "></rect><rect class="rect" x="687.377358490566" y="48.886792452830186" width="13.962264150943396" height="13.962264150943396" style=" animation-delay: 2.5486155176986154s; fill: rgba(134, 0, 179, 0.4); stroke: rgba(210, 77, 255, 0.2); "></rect><rect class="rect-off" x="687.377358490566" y="64.84905660377359" width="13.962264150943396" height="13.962264150943396"></rect><rect class="rect-off" x="687.377358490566" y="80.81132075471697" width="13.962264150943396" height="13.962264150943396"></rect><rect class="rect" x="687.377358490566" y="96.77358490566037" width="13.962264150943396" height="13.962264150943396" style=" animation-delay: 1.480591075686484s; fill: rgba(134, 0, 179, 0.4); stroke: rgba(210, 77, 255, 0.2); "></rect><rect class="rect-off" x="703.3396226415094" y="1" width="13.962264150943396" height="13.962264150943396"></rect><rect class="rect" x="703.3396226415094" y="16.962264150943398" width="13.962264150943396" height="13.962264150943396" style=" animation-delay: 0.754407728923528s; fill: rgba(134, 0, 179, 0.2); stroke: rgba(210, 77, 255, 0.1); "></rect><rect class="rect-off" x="703.3396226415094" y="32.924528301886795" width="13.962264150943396" height="13.962264150943396"></rect><rect class="rect" x="703.3396226415094" y="48.886792452830186" width="13.962264150943396" height="13.962264150943396" style=" animation-delay: 0.01210543399873698s; fill: rgba(134, 0, 179, 1.2); stroke: rgba(210, 77, 255, 0.6); "></rect><rect class="rect-off" x="703.3396226415094" y="64.84905660377359" width="13.962264150943396" height="13.962264150943396"></rect><rect class="rect-off" x="703.3396226415094" y="80.81132075471697" width="13.962264150943396" height="13.962264150943396"></rect><rect class="rect-off" x="703.3396226415094" y="96.77358490566037" width="13.962264150943396" height="13.962264150943396"></rect><rect class="rect-off" x="719.3018867924528" y="1" width="13.962264150943396" height="13.962264150943396"></rect><rect class="rect" x="719.3018867924528" y="16.962264150943398" width="13.962264150943396" height="13.962264150943396" style=" animation-delay: 1.6649525679863457s; fill: rgba(134, 0, 179, 1); stroke: rgba(210, 77, 255, 0.5); "></rect><rect class="rect-off" x="719.3018867924528" y="32.924528301886795" width="13.962264150943396" height="13.962264150943396"></rect><rect class="rect-off" x="719.3018867924528" y="48.886792452830186" width="13.962264150943396" height="13.962264150943396"></rect><rect class="rect-off" x="719.3018867924528" y="64.84905660377359" width="13.962264150943396" height="13.962264150943396"></rect><rect class="rect" x="719.3018867924528" y="80.81132075471697" width="13.962264150943396" height="13.962264150943396" style=" animation-delay: 2.2752783184884637s; fill: rgba(134, 0, 179, 0.2); stroke: rgba(210, 77, 255, 0.1); "></rect><rect class="rect" x="719.3018867924528" y="96.77358490566037" width="13.962264150943396" height="13.962264150943396" style=" animation-delay: 1.9142743116967638s; fill: rgba(134, 0, 179, 0.4); stroke: rgba(210, 77, 255, 0.2); "></rect><rect class="rect" x="735.2641509433962" y="1" width="13.962264150943396" height="13.962264150943396" style=" animation-delay: 1.014238078134505s; fill: rgba(134, 0, 179, 0.8); stroke: rgba(210, 77, 255, 0.4); "></rect><rect class="rect-off" x="735.2641509433962" y="16.962264150943398" width="13.962264150943396" height="13.962264150943396"></rect><rect class="rect-off" x="735.2641509433962" y="32.924528301886795" width="13.962264150943396" height="13.962264150943396"></rect><rect class="rect-off" x="735.2641509433962" y="48.886792452830186" width="13.962264150943396" height="13.962264150943396"></rect><rect class="rect-off" x="735.2641509433962" y="64.84905660377359" width="13.962264150943396" height="13.962264150943396"></rect><rect class="rect-off" x="735.2641509433962" y="80.81132075471697" width="13.962264150943396" height="13.962264150943396"></rect><rect class="rect-off" x="735.2641509433962" y="96.77358490566037" width="13.962264150943396" height="13.962264150943396"></rect><rect class="rect-off" x="751.2264150943396" y="1" width="13.962264150943396" height="13.962264150943396"></rect><rect class="rect-off" x="751.2264150943396" y="16.962264150943398" width="13.962264150943396" height="13.962264150943396"></rect><rect class="rect-off" x="751.2264150943396" y="32.924528301886795" width="13.962264150943396" height="13.962264150943396"></rect><rect class="rect-off" x="751.2264150943396" y="48.886792452830186" width="13.962264150943396" height="13.962264150943396"></rect><rect class="rect-off" x="751.2264150943396" y="64.84905660377359" width="13.962264150943396" height="13.962264150943396"></rect><rect class="rect-off" x="751.2264150943396" y="80.81132075471697" width="13.962264150943396" height="13.962264150943396"></rect><rect class="rect" x="751.2264150943396" y="96.77358490566037" width="13.962264150943396" height="13.962264150943396" style=" animation-delay: 2.5856638533662366s; fill: rgba(134, 0, 179, 0.2); stroke: rgba(210, 77, 255, 0.1); "></rect><rect class="rect-off" x="767.188679245283" y="1" width="13.962264150943396" height="13.962264150943396"></rect><rect class="rect-off" x="767.188679245283" y="16.962264150943398" width="13.962264150943396" height="13.962264150943396"></rect><rect class="rect-off" x="767.188679245283" y="32.924528301886795" width="13.962264150943396" height="13.962264150943396"></rect><rect class="rect-off" x="767.188679245283" y="48.886792452830186" width="13.962264150943396" height="13.962264150943396"></rect><rect class="rect-off" x="767.188679245283" y="64.84905660377359" width="13.962264150943396" height="13.962264150943396"></rect><rect class="rect" x="767.188679245283" y="80.81132075471697" width="13.962264150943396" height="13.962264150943396" style=" animation-delay: 1.8678342401464616s; fill: rgba(134, 0, 179, 0.4); stroke: rgba(210, 77, 255, 0.2); "></rect><rect class="rect" x="767.188679245283" y="96.77358490566037" width="13.962264150943396" height="13.962264150943396" style=" animation-delay: 1.1336106557645984s; fill: rgba(134, 0, 179, 0.8); stroke: rgba(210, 77, 255, 0.4); "></rect><rect class="rect" x="783.1509433962264" y="1" width="13.962264150943396" height="13.962264150943396" style=" animation-delay: 1.613518045899243s; fill: rgba(134, 0, 179, 0.4); stroke: rgba(210, 77, 255, 0.2); "></rect><rect class="rect-off" x="783.1509433962264" y="16.962264150943398" width="13.962264150943396" height="13.962264150943396"></rect><rect class="rect" x="783.1509433962264" y="32.924528301886795" width="13.962264150943396" height="13.962264150943396" style=" animation-delay: 2.8825711415757285s; fill: rgba(134, 0, 179, 0.4); stroke: rgba(210, 77, 255, 0.2); "></rect><rect class="rect-off" x="783.1509433962264" y="48.886792452830186" width="13.962264150943396" height="13.962264150943396"></rect><rect class="rect-off" x="783.1509433962264" y="64.84905660377359" width="13.962264150943396" height="13.962264150943396"></rect><rect class="rect-off" x="783.1509433962264" y="80.81132075471697" width="13.962264150943396" height="13.962264150943396"></rect><rect class="rect-off" x="783.1509433962264" y="96.77358490566037" width="13.962264150943396" height="13.962264150943396"></rect><rect class="rect-off" x="799.1132075471697" y="1" width="13.962264150943396" height="13.962264150943396"></rect><rect class="rect-off" x="799.1132075471697" y="16.962264150943398" width="13.962264150943396" height="13.962264150943396"></rect><rect class="rect" x="799.1132075471697" y="32.924528301886795" width="13.962264150943396" height="13.962264150943396" style=" animation-delay: 0.8155607792580359s; fill: rgba(134, 0, 179, 1.8); stroke: rgba(210, 77, 255, 0.9); "></rect><rect class="rect" x="799.1132075471697" y="48.886792452830186" width="13.962264150943396" height="13.962264150943396" style=" animation-delay: 2.0405813878387202s; fill: rgba(134, 0, 179, 1); stroke: rgba(210, 77, 255, 0.5); "></rect><rect class="rect" x="799.1132075471697" y="64.84905660377359" width="13.962264150943396" height="13.962264150943396" style=" animation-delay: 1.9165414388230564s; fill: rgba(134, 0, 179, 1.4); stroke: rgba(210, 77, 255, 0.7); "></rect><rect class="rect" x="799.1132075471697" y="80.81132075471697" width="13.962264150943396" height="13.962264150943396" style=" animation-delay: 1.3842667877337496s; fill: rgba(134, 0, 179, 0.4); stroke: rgba(210, 77, 255, 0.2); "></rect><rect class="rect-off" x="799.1132075471697" y="96.77358490566037" width="13.962264150943396" height="13.962264150943396"></rect><rect class="rect-off" x="815.0754716981132" y="1" width="13.962264150943396" height="13.962264150943396"></rect><rect class="rect" x="815.0754716981132" y="16.962264150943398" width="13.962264150943396" height="13.962264150943396" style=" animation-delay: 0.3004767170977194s; fill: rgba(134, 0, 179, 1); stroke: rgba(210, 77, 255, 0.5); "></rect><rect class="rect" x="815.0754716981132" y="32.924528301886795" width="13.962264150943396" height="13.962264150943396" style=" animation-delay: 1.036153156053434s; fill: rgba(134, 0, 179, 0.6); stroke: rgba(210, 77, 255, 0.3); "></rect><rect class="rect-off" x="815.0754716981132" y="48.886792452830186" width="13.962264150943396" height="13.962264150943396"></rect><rect class="rect" x="815.0754716981132" y="64.84905660377359" width="13.962264150943396" height="13.962264150943396" style=" animation-delay: 0.626100703097334s; fill: rgba(134, 0, 179, 1); stroke: rgba(210, 77, 255, 0.5); "></rect><rect class="rect" x="815.0754716981132" y="80.81132075471697" width="13.962264150943396" height="13.962264150943396" style=" animation-delay: 2.7966197183888477s; fill: rgba(134, 0, 179, 3.4); stroke: rgba(210, 77, 255, 1.7); "></rect><rect class="rect" x="815.0754716981132" y="96.77358490566037" width="13.962264150943396" height="13.962264150943396" style=" animation-delay: 2.9037992376966404s; fill: rgba(134, 0, 179, 1); stroke: rgba(210, 77, 255, 0.5); "></rect><rect class="rect-off" x="831.0377358490566" y="1" width="13.962264150943396" height="13.962264150943396"></rect><rect class="rect-off" x="831.0377358490566" y="16.962264150943398" width="13.962264150943396" height="13.962264150943396"></rect></svg>