<svg viewBox="0 0 846 111.73584905660377" width="846" height="111.73584905660377" xmlns="http://www.w3.org/2000/svg">  <style>  .rect {  fill: #8600b3;  stroke-width: 1.7px;  stroke: #d24dff22;  stroke-dasharray: 100;  animation: dash 18s linear;  animation-iteration-count: infinite;  }   @keyframes dash {  from {  stroke-dashoffset: 822;  }  to {  stroke-dashoffset: 0;  }  }   .rect-off {  fill: #25003311;  stroke-width: 0.4px;  stroke: #d24dff44;  }   </style><rect class="rect-off" x="1" y="1" width="13.962264150943396" height="13.962264150943396"></rect><rect class="rect-off" x="1" y="16.962264150943398" width="13.962264150943396" height="13.962264150943396"></rect><rect class="rect-off" x="1" y="32.924528301886795" width="13.962264150943396" height="13.962264150943396"></rect><rect class="rect-off" x="1" y="48.886792452830186" width="13.962264150943396" height="13.962264150943396"></rect><rect class="rect-off" x="1" y="64.84905660377359" width="13.962264150943396" height="13.962264150943396"></rect><rect class="rect-off" x="1" y="80.81132075471697" width="13.962264150943396" height="13.962264150943396"></rect><rect class="rect-off" x="1" y="96.77358490566037" width="13.962264150943396" height="13.962264150943396"></rect><rect class="rect" x="16.962264150943398" y="1" width="13.962264150943396" height="13.962264150943396" style="  animation-delay: 2.357329351941294s;  fill: rgba(134, 0, 179, 1);  stroke: rgba(210, 77, 255, 0.5);  "></rect><rect class="rect" x="16.962264150943398" y="16.962264150943398" width="13.962264150943396" height="13.962264150943396" style="  animation-delay: 2.959226945315721s;  fill: rgba(134, 0, 179, 0.5);  stroke: rgba(210, 77, 255, 0.25);  "></rect><rect class="rect-off" x="16.962264150943398" y="32.924528301886795" width="13.962264150943396" height="13.962264150943396"></rect><rect class="rect-off" x="16.962264150943398" y="48.886792452830186" width="13.962264150943396" height="13.962264150943396"></rect><rect class="rect-off" x="16.962264150943398" y="64.84905660377359" width="13.962264150943396" height="13.962264150943396"></rect><rect class="rect-off" x="16.962264150943398" y="80.81132075471697" width="13.962264150943396" height="13.962264150943396"></rect><rect class="rect-off" x="16.962264150943398" y="96.77358490566037" width="13.962264150943396" height="13.962264150943396"></rect><rect class="rect" x="32.924528301886795" y="1" width="13.962264150943396" height="13.962264150943396" style="  animation-delay: 0.8538656795046569s;  fill: rgba(134, 0, 179, 1.5);  stroke: rgba(210, 77, 255, 0.75);  "></rect><rect class="rect" x="32.924528301886795" y="16.962264150943398" width="13.962264150943396" height="13.962264150943396" style="  animation-delay: 1.724057133233842s;  fill: rgba(134, 0, 179, 9);  stroke: rgba(210, 77, 255, 4.5);  "></rect><rect class="rect-off" x="32.924528301886795" y="32.924528301886795" width="13.962264150943396" height="13.962264150943396"></rect><rect class="rect-off" x="32.924528301886795" y="48.886792452830186" width="13.962264150943396" height="13.962264150943396"></rect><rect class="rect-off" x="32.924528301886795" y="64.84905660377359" width="13.962264150943396" height="13.962264150943396"></rect><rect class="rect-off" x="32.924528301886795" y="80.81132075471697" width="13.962264150943396" height="13.962264150943396"></rect><rect class="rect-off" x="32.924528301886795" y="96.77358490566037" width="13.962264150943396" height="13.962264150943396"></rect><rect class="rect-off" x="48.886792452830186" y="1" width="13.962264150943396" height="13.962264150943396"></rect><rect class="rect-off" x="48.886792452830186" y="16.962264150943398" width="13.962264150943396" height="13.962264150943396"></rect><rect class="rect" x="48.886792452830186" y="32.924528301886795" width="13.962264150943396" height="13.962264150943396" style="  animation-delay: 0.37739145191620693s;  fill: rgba(134, 0, 179, 2.5);  stroke: rgba(210, 77, 255, 1.25);  "></rect><rect class="rect" x="48.886792452830186" y="48.886792452830186" width="13.962264150943396" height="13.962264150943396" style="  animation-delay: 2.210458896414541s;  fill: rgba(134, 0, 179, 1);  stroke: rgba(210, 77, 255, 0.5);  "></rect><rect class="rect-off" x="48.886792452830186" y="64.84905660377359" width="13.962264150943396" height="13.962264150943396"></rect><rect class="rect" x="48.886792452830186" y="80.81132075471697" width="13.962264150943396" height="13.962264150943396" style="  animation-delay: 2.5705076267069487s;  fill: rgba(134, 0, 179, 0.5);  stroke: rgba(210, 77, 255, 0.25);  "></rect><rect class="rect" x="48.886792452830186" y="96.77358490566037" width="13.962264150943396" height="13.962264150943396" style="  animation-delay: 1.6421667055848388s;  fill: rgba(134, 0, 179, 0.5);  stroke: rgba(210, 77, 255, 0.25);  "></rect><rect class="rect-off" x="64.84905660377359" y="1" width="13.962264150943396" height="13.962264150943396"></rect><rect class="rect" x="64.84905660377359" y="16.962264150943398" width="13.962264150943396" height="13.962264150943396" style="  animation-delay: 2.38660655470538s;  fill: rgba(134, 0, 179, 0.5);  stroke: rgba(210, 77, 255, 0.25);  "></rect><rect class="rect-off" x="64.84905660377359" y="32.924528301886795" width="13.962264150943396" height="13.962264150943396"></rect><rect class="rect-off" x="64.84905660377359" y="48.886792452830186" width="13.962264150943396" height="13.962264150943396"></rect><rect class="rect-off" x="64.84905660377359" y="64.84905660377359" width="13.962264150943396" height="13.962264150943396"></rect><rect class="rect-off" x="64.84905660377359" y="80.81132075471697" width="13.962264150943396" height="13.962264150943396"></rect><rect class="rect-off" x="64.84905660377359" y="96.77358490566037" width="13.962264150943396" height="13.962264150943396"></rect><rect class="rect-off" x="80.81132075471697" y="1" width="13.962264150943396" height="13.962264150943396"></rect><rect class="rect-off" x="80.81132075471697" y="16.962264150943398" width="13.962264150943396" height="13.962264150943396"></rect><rect class="rect-off" x="80.81132075471697" y="32.924528301886795" width="13.962264150943396" height="13.962264150943396"></rect><rect class="rect-off" x="80.81132075471697" y="48.886792452830186" width="13.962264150943396" height="13.962264150943396"></rect><rect class="rect-off" x="80.81132075471697" y="64.84905660377359" width="13.962264150943396" height="13.962264150943396"></rect><rect class="rect-off" x="80.81132075471697" y="80.81132075471697" width="13.962264150943396" height="13.962264150943396"></rect><rect class="rect-off" x="80.81132075471697" y="96.77358490566037" width="13.962264150943396" height="13.962264150943396"></rect><rect class="rect-off" x="96.77358490566037" y="1" width="13.962264150943396" height="13.962264150943396"></rect><rect class="rect-off" x="96.77358490566037" y="16.962264150943398" width="13.962264150943396" height="13.962264150943396"></rect><rect class="rect-off" x="96.77358490566037" y="32.924528301886795" width="13.962264150943396" height="13.962264150943396"></rect><rect class="rect-off" x="96.77358490566037" y="48.886792452830186" width="13.962264150943396" height="13.962264150943396"></rect><rect class="rect-off" x="96.77358490566037" y="64.84905660377359" width="13.962264150943396" height="13.962264150943396"></rect><rect class="rect-off" x="96.77358490566037" y="80.81132075471697" width="13.962264150943396" height="13.962264150943396"></rect><rect class="rect-off" x="96.77358490566037" y="96.77358490566037" width="13.962264150943396" height="13.962264150943396"></rect><rect class="rect" x="112.73584905660377" y="1" width="13.962264150943396" height="13.962264150943396" style="  animation-delay: 0.05875978228559675s;  fill: rgba(134, 0, 179, 0.5);  stroke: rgba(210, 77, 255, 0.25);  "></rect><rect class="rect-off" x="112.73584905660377" y="16.962264150943398" width="13.962264150943396" height="13.962264150943396"></rect><rect class="rect-off" x="112.73584905660377" y="32.924528301886795" width="13.962264150943396" height="13.962264150943396"></rect><rect class="rect-off" x="112.73584905660377" y="48.886792452830186" width="13.962264150943396" height="13.962264150943396"></rect><rect class="rect-off" x="112.73584905660377" y="64.84905660377359" width="13.962264150943396" height="13.962264150943396"></rect><rect class="rect" x="112.73584905660377" y="80.81132075471697" width="13.962264150943396" height="13.962264150943396" style="  animation-delay: 1.5320575108184706s;  fill: rgba(134, 0, 179, 1);  stroke: rgba(210, 77, 255, 0.5);  "></rect><rect class="rect-off" x="112.73584905660377" y="96.77358490566037" width="13.962264150943396" height="13.962264150943396"></rect><rect class="rect-off" x="128.69811320754718" y="1" width="13.962264150943396" height="13.962264150943396"></rect><rect class="rect-off" x="128.69811320754718" y="16.962264150943398" width="13.962264150943396" height="13.962264150943396"></rect><rect class="rect-off" x="128.69811320754718" y="32.924528301886795" width="13.962264150943396" height="13.962264150943396"></rect><rect class="rect-off" x="128.69811320754718" y="48.886792452830186" width="13.962264150943396" height="13.962264150943396"></rect><rect class="rect-off" x="128.69811320754718" y="64.84905660377359" width="13.962264150943396" height="13.962264150943396"></rect><rect class="rect-off" x="128.69811320754718" y="80.81132075471697" width="13.962264150943396" height="13.962264150943396"></rect><rect class="rect-off" x="128.69811320754718" y="96.77358490566037" width="13.962264150943396" height="13.962264150943396"></rect><rect class="rect-off" x="144.66037735849056" y="1" width="13.962264150943396" height="13.962264150943396"></rect><rect class="rect-off" x="144.66037735849056" y="16.962264150943398" width="13.962264150943396" height="13.962264150943396"></rect><rect class="rect-off" x="144.66037735849056" y="32.924528301886795" width="13.962264150943396" height="13.962264150943396"></rect><rect class="rect-off" x="144.66037735849056" y="48.886792452830186" width="13.962264150943396" height="13.962264150943396"></rect><rect class="rect-off" x="144.66037735849056" y="64.84905660377359" width="13.962264150943396" height="13.962264150943396"></rect><rect class="rect-off" x="144.66037735849056" y="80.81132075471697" width="13.962264150943396" height="13.962264150943396"></rect><rect class="rect-off" x="144.66037735849056" y="96.77358490566037" width="13.962264150943396" height="13.962264150943396"></rect><rect class="rect-off" x="160.62264150943395" y="1" width="13.962264150943396" height="13.962264150943396"></rect><rect class="rect-off" x="160.62264150943395" y="16.962264150943398" width="13.962264150943396" height="13.962264150943396"></rect><rect class="rect-off" x="160.62264150943395" y="32.924528301886795" width="13.962264150943396" height="13.962264150943396"></rect><rect class="rect-off" x="160.62264150943395" y="48.886792452830186" width="13.962264150943396" height="13.962264150943396"></rect><rect class="rect-off" x="160.62264150943395" y="64.84905660377359" width="13.962264150943396" height="13.962264150943396"></rect><rect class="rect-off" x="160.62264150943395" y="80.81132075471697" width="13.962264150943396" height="13.962264150943396"></rect><rect class="rect-off" x="160.62264150943395" y="96.77358490566037" width="13.962264150943396" height="13.962264150943396"></rect><rect class="rect-off" x="176.58490566037736" y="1" width="13.962264150943396" height="13.962264150943396"></rect><rect class="rect-off" x="176.58490566037736" y="16.962264150943398" width="13.962264150943396" height="13.962264150943396"></rect><rect class="rect-off" x="176.58490566037736" y="32.924528301886795" width="13.962264150943396" height="13.962264150943396"></rect><rect class="rect-off" x="176.58490566037736" y="48.886792452830186" width="13.962264150943396" height="13.962264150943396"></rect><rect class="rect-off" x="176.58490566037736" y="64.84905660377359" width="13.962264150943396" height="13.962264150943396"></rect><rect class="rect-off" x="176.58490566037736" y="80.81132075471697" width="13.962264150943396" height="13.962264150943396"></rect><rect class="rect-off" x="176.58490566037736" y="96.77358490566037" width="13.962264150943396" height="13.962264150943396"></rect><rect class="rect-off" x="192.54716981132074" y="1" width="13.962264150943396" height="13.962264150943396"></rect><rect class="rect-off" x="192.54716981132074" y="16.962264150943398" width="13.962264150943396" height="13.962264150943396"></rect><rect class="rect-off" x="192.54716981132074" y="32.924528301886795" width="13.962264150943396" height="13.962264150943396"></rect><rect class="rect-off" x="192.54716981132074" y="48.886792452830186" width="13.962264150943396" height="13.962264150943396"></rect><rect class="rect-off" x="192.54716981132074" y="64.84905660377359" width="13.962264150943396" height="13.962264150943396"></rect><rect class="rect-off" x="192.54716981132074" y="80.81132075471697" width="13.962264150943396" height="13.962264150943396"></rect><rect class="rect-off" x="192.54716981132074" y="96.77358490566037" width="13.962264150943396" height="13.962264150943396"></rect><rect class="rect-off" x="208.50943396226415" y="1" width="13.962264150943396" height="13.962264150943396"></rect><rect class="rect-off" x="208.50943396226415" y="16.962264150943398" width="13.962264150943396" height="13.962264150943396"></rect><rect class="rect-off" x="208.50943396226415" y="32.924528301886795" width="13.962264150943396" height="13.962264150943396"></rect><rect class="rect-off" x="208.50943396226415" y="48.886792452830186" width="13.962264150943396" height="13.962264150943396"></rect><rect class="rect-off" x="208.50943396226415" y="64.84905660377359" width="13.962264150943396" height="13.962264150943396"></rect><rect class="rect-off" x="208.50943396226415" y="80.81132075471697" width="13.962264150943396" height="13.962264150943396"></rect><rect class="rect-off" x="208.50943396226415" y="96.77358490566037" width="13.962264150943396" height="13.962264150943396"></rect><rect class="rect-off" x="224.47169811320754" y="1" width="13.962264150943396" height="13.962264150943396"></rect><rect class="rect-off" x="224.47169811320754" y="16.962264150943398" width="13.962264150943396" height="13.962264150943396"></rect><rect class="rect-off" x="224.47169811320754" y="32.924528301886795" width="13.962264150943396" height="13.962264150943396"></rect><rect class="rect-off" x="224.47169811320754" y="48.886792452830186" width="13.962264150943396" height="13.962264150943396"></rect><rect class="rect-off" x="224.47169811320754" y="64.84905660377359" width="13.962264150943396" height="13.962264150943396"></rect><rect class="rect-off" x="224.47169811320754" y="80.81132075471697" width="13.962264150943396" height="13.962264150943396"></rect><rect class="rect-off" x="224.47169811320754" y="96.77358490566037" width="13.962264150943396" height="13.962264150943396"></rect><rect class="rect-off" x="240.43396226415095" y="1" width="13.962264150943396" height="13.962264150943396"></rect><rect class="rect-off" x="240.43396226415095" y="16.962264150943398" width="13.962264150943396" height="13.962264150943396"></rect><rect class="rect" x="240.43396226415095" y="32.924528301886795" width="13.962264150943396" height="13.962264150943396" style="  animation-delay: 0.3955641926654889s;  fill: rgba(134, 0, 179, 1.5);  stroke: rgba(210, 77, 255, 0.75);  "></rect><rect class="rect-off" x="240.43396226415095" y="48.886792452830186" width="13.962264150943396" height="13.962264150943396"></rect><rect class="rect-off" x="240.43396226415095" y="64.84905660377359" width="13.962264150943396" height="13.962264150943396"></rect><rect class="rect-off" x="240.43396226415095" y="80.81132075471697" width="13.962264150943396" height="13.962264150943396"></rect><rect class="rect-off" x="240.43396226415095" y="96.77358490566037" width="13.962264150943396" height="13.962264150943396"></rect><rect class="rect-off" x="256.39622641509436" y="1" width="13.962264150943396" height="13.962264150943396"></rect><rect class="rect-off" x="256.39622641509436" y="16.962264150943398" width="13.962264150943396" height="13.962264150943396"></rect><rect class="rect-off" x="256.39622641509436" y="32.924528301886795" width="13.962264150943396" height="13.962264150943396"></rect><rect class="rect-off" x="256.39622641509436" y="48.886792452830186" width="13.962264150943396" height="13.962264150943396"></rect><rect class="rect-off" x="256.39622641509436" y="64.84905660377359" width="13.962264150943396" height="13.962264150943396"></rect><rect class="rect-off" x="256.39622641509436" y="80.81132075471697" width="13.962264150943396" height="13.962264150943396"></rect><rect class="rect-off" x="256.39622641509436" y="96.77358490566037" width="13.962264150943396" height="13.962264150943396"></rect><rect class="rect" x="272.35849056603774" y="1" width="13.962264150943396" height="13.962264150943396" style="  animation-delay: 0.18609011444691004s;  fill: rgba(134, 0, 179, 0.5);  stroke: rgba(210, 77, 255, 0.25);  "></rect><rect class="rect-off" x="272.35849056603774" y="16.962264150943398" width="13.962264150943396" height="13.962264150943396"></rect><rect class="rect-off" x="272.35849056603774" y="32.924528301886795" width="13.962264150943396" height="13.962264150943396"></rect><rect class="rect-off" x="272.35849056603774" y="48.886792452830186" width="13.962264150943396" height="13.962264150943396"></rect><rect class="rect-off" x="272.35849056603774" y="64.84905660377359" width="13.962264150943396" height="13.962264150943396"></rect><rect class="rect-off" x="272.35849056603774" y="80.81132075471697" width="13.962264150943396" height="13.962264150943396"></rect><rect class="rect-off" x="272.35849056603774" y="96.77358490566037" width="13.962264150943396" height="13.962264150943396"></rect><rect class="rect-off" x="288.3207547169811" y="1" width="13.962264150943396" height="13.962264150943396"></rect><rect class="rect-off" x="288.3207547169811" y="16.962264150943398" width="13.962264150943396" height="13.962264150943396"></rect><rect class="rect-off" x="288.3207547169811" y="32.924528301886795" width="13.962264150943396" height="13.962264150943396"></rect><rect class="rect-off" x="288.3207547169811" y="48.886792452830186" width="13.962264150943396" height="13.962264150943396"></rect><rect class="rect-off" x="288.3207547169811" y="64.84905660377359" width="13.962264150943396" height="13.962264150943396"></rect><rect class="rect-off" x="288.3207547169811" y="80.81132075471697" width="13.962264150943396" height="13.962264150943396"></rect><rect class="rect-off" x="288.3207547169811" y="96.77358490566037" width="13.962264150943396" height="13.962264150943396"></rect><rect class="rect" x="304.2830188679245" y="1" width="13.962264150943396" height="13.962264150943396" style="  animation-delay: 1.736239216337618s;  fill: rgba(134, 0, 179, 1);  stroke: rgba(210, 77, 255, 0.5);  "></rect><rect class="rect-off" x="304.2830188679245" y="16.962264150943398" width="13.962264150943396" height="13.962264150943396"></rect><rect class="rect-off" x="304.2830188679245" y="32.924528301886795" width="13.962264150943396" height="13.962264150943396"></rect><rect class="rect-off" x="304.2830188679245" y="48.886792452830186" width="13.962264150943396" height="13.962264150943396"></rect><rect class="rect-off" x="304.2830188679245" y="64.84905660377359" width="13.962264150943396" height="13.962264150943396"></rect><rect class="rect" x="304.2830188679245" y="80.81132075471697" width="13.962264150943396" height="13.962264150943396" style="  animation-delay: 2.32516957489787s;  fill: rgba(134, 0, 179, 0.5);  stroke: rgba(210, 77, 255, 0.25);  "></rect><rect class="rect" x="304.2830188679245" y="96.77358490566037" width="13.962264150943396" height="13.962264150943396" style="  animation-delay: 2.8800554231346402s;  fill: rgba(134, 0, 179, 1);  stroke: rgba(210, 77, 255, 0.5);  "></rect><rect class="rect" x="320.2452830188679" y="1" width="13.962264150943396" height="13.962264150943396" style="  animation-delay: 2.073471133515847s;  fill: rgba(134, 0, 179, 35.5);  stroke: rgba(210, 77, 255, 17.75);  "></rect><rect class="rect-off" x="320.2452830188679" y="16.962264150943398" width="13.962264150943396" height="13.962264150943396"></rect><rect class="rect" x="320.2452830188679" y="32.924528301886795" width="13.962264150943396" height="13.962264150943396" style="  animation-delay: 2.1928439115172376s;  fill: rgba(134, 0, 179, 1.5);  stroke: rgba(210, 77, 255, 0.75);  "></rect><rect class="rect-off" x="320.2452830188679" y="48.886792452830186" width="13.962264150943396" height="13.962264150943396"></rect><rect class="rect" x="320.2452830188679" y="64.84905660377359" width="13.962264150943396" height="13.962264150943396" style="  animation-delay: 1.1424824295816471s;  fill: rgba(134, 0, 179, 0.5);  stroke: rgba(210, 77, 255, 0.25);  "></rect><rect class="rect-off" x="320.2452830188679" y="80.81132075471697" width="13.962264150943396" height="13.962264150943396"></rect><rect class="rect" x="320.2452830188679" y="96.77358490566037" width="13.962264150943396" height="13.962264150943396" style="  animation-delay: 0.4455224225301315s;  fill: rgba(134, 0, 179, 0.5);  stroke: rgba(210, 77, 255, 0.25);  "></rect><rect class="rect-off" x="336.20754716981133" y="1" width="13.962264150943396" height="13.962264150943396"></rect><rect class="rect-off" x="336.20754716981133" y="16.962264150943398" width="13.962264150943396" height="13.962264150943396"></rect><rect class="rect-off" x="336.20754716981133" y="32.924528301886795" width="13.962264150943396" height="13.962264150943396"></rect><rect class="rect" x="336.20754716981133" y="48.886792452830186" width="13.962264150943396" height="13.962264150943396" style="  animation-delay: 0.8843987156504305s;  fill: rgba(134, 0, 179, 1);  stroke: rgba(210, 77, 255, 0.5);  "></rect><rect class="rect" x="336.20754716981133" y="64.84905660377359" width="13.962264150943396" height="13.962264150943396" style="  animation-delay: 2.266154648843725s;  fill: rgba(134, 0, 179, 1);  stroke: rgba(210, 77, 255, 0.5);  "></rect><rect class="rect" x="336.20754716981133" y="80.81132075471697" width="13.962264150943396" height="13.962264150943396" style="  animation-delay: 2.8405621542315886s;  fill: rgba(134, 0, 179, 1);  stroke: rgba(210, 77, 255, 0.5);  "></rect><rect class="rect" x="336.20754716981133" y="96.77358490566037" width="13.962264150943396" height="13.962264150943396" style="  animation-delay: 2.436000461952643s;  fill: rgba(134, 0, 179, 1);  stroke: rgba(210, 77, 255, 0.5);  "></rect><rect class="rect" x="352.1698113207547" y="1" width="13.962264150943396" height="13.962264150943396" style="  animation-delay: 1.0008042131490353s;  fill: rgba(134, 0, 179, 5);  stroke: rgba(210, 77, 255, 2.5);  "></rect><rect class="rect" x="352.1698113207547" y="16.962264150943398" width="13.962264150943396" height="13.962264150943396" style="  animation-delay: 1.7835652863741922s;  fill: rgba(134, 0, 179, 3);  stroke: rgba(210, 77, 255, 1.5);  "></rect><rect class="rect" x="352.1698113207547" y="32.924528301886795" width="13.962264150943396" height="13.962264150943396" style="  animation-delay: 0.3421357205117055s;  fill: rgba(134, 0, 179, 2);  stroke: rgba(210, 77, 255, 1);  "></rect><rect class="rect" x="352.1698113207547" y="48.886792452830186" width="13.962264150943396" height="13.962264150943396" style="  animation-delay: 1.859025874603327s;  fill: rgba(134, 0, 179, 1.5);  stroke: rgba(210, 77, 255, 0.75);  "></rect><rect class="rect-off" x="352.1698113207547" y="64.84905660377359" width="13.962264150943396" height="13.962264150943396"></rect><rect class="rect-off" x="352.1698113207547" y="80.81132075471697" width="13.962264150943396" height="13.962264150943396"></rect><rect class="rect-off" x="352.1698113207547" y="96.77358490566037" width="13.962264150943396" height="13.962264150943396"></rect><rect class="rect-off" x="368.1320754716981" y="1" width="13.962264150943396" height="13.962264150943396"></rect><rect class="rect-off" x="368.1320754716981" y="16.962264150943398" width="13.962264150943396" height="13.962264150943396"></rect><rect class="rect-off" x="368.1320754716981" y="32.924528301886795" width="13.962264150943396" height="13.962264150943396"></rect><rect class="rect-off" x="368.1320754716981" y="48.886792452830186" width="13.962264150943396" height="13.962264150943396"></rect><rect class="rect-off" x="368.1320754716981" y="64.84905660377359" width="13.962264150943396" height="13.962264150943396"></rect><rect class="rect-off" x="368.1320754716981" y="80.81132075471697" width="13.962264150943396" height="13.962264150943396"></rect><rect class="rect-off" x="368.1320754716981" y="96.77358490566037" width="13.962264150943396" height="13.962264150943396"></rect><rect class="rect-off" x="384.0943396226415" y="1" width="13.962264150943396" height="13.962264150943396"></rect><rect class="rect-off" x="384.0943396226415" y="16.962264150943398" width="13.962264150943396" height="13.962264150943396"></rect><rect class="rect-off" x="384.0943396226415" y="32.924528301886795" width="13.962264150943396" height="13.962264150943396"></rect><rect class="rect-off" x="384.0943396226415" y="48.886792452830186" width="13.962264150943396" height="13.962264150943396"></rect><rect class="rect-off" x="384.0943396226415" y="64.84905660377359" width="13.962264150943396" height="13.962264150943396"></rect><rect class="rect-off" x="384.0943396226415" y="80.81132075471697" width="13.962264150943396" height="13.962264150943396"></rect><rect class="rect" x="384.0943396226415" y="96.77358490566037" width="13.962264150943396" height="13.962264150943396" style="  animation-delay: 1.4474569448510024s;  fill: rgba(134, 0, 179, 1);  stroke: rgba(210, 77, 255, 0.5);  "></rect><rect class="rect" x="400.05660377358487" y="1" width="13.962264150943396" height="13.962264150943396" style="  animation-delay: 1.750807442129435s;  fill: rgba(134, 0, 179, 2);  stroke: rgba(210, 77, 255, 1);  "></rect><rect class="rect-off" x="400.05660377358487" y="16.962264150943398" width="13.962264150943396" height="13.962264150943396"></rect><rect class="rect" x="400.05660377358487" y="32.924528301886795" width="13.962264150943396" height="13.962264150943396" style="  animation-delay: 2.339342294477747s;  fill: rgba(134, 0, 179, 0.5);  stroke: rgba(210, 77, 255, 0.25);  "></rect><rect class="rect" x="400.05660377358487" y="48.886792452830186" width="13.962264150943396" height="13.962264150943396" style="  animation-delay: 2.8543895353783606s;  fill: rgba(134, 0, 179, 1.5);  stroke: rgba(210, 77, 255, 0.75);  "></rect><rect class="rect-off" x="400.05660377358487" y="64.84905660377359" width="13.962264150943396" height="13.962264150943396"></rect><rect class="rect" x="400.05660377358487" y="80.81132075471697" width="13.962264150943396" height="13.962264150943396" style="  animation-delay: 2.4642548201634797s;  fill: rgba(134, 0, 179, 0.5);  stroke: rgba(210, 77, 255, 0.25);  "></rect><rect class="rect" x="400.05660377358487" y="96.77358490566037" width="13.962264150943396" height="13.962264150943396" style="  animation-delay: 2.1292575286851614s;  fill: rgba(134, 0, 179, 0.5);  stroke: rgba(210, 77, 255, 0.25);  "></rect><rect class="rect" x="416.0188679245283" y="1" width="13.962264150943396" height="13.962264150943396" style="  animation-delay: 2.3019560476509846s;  fill: rgba(134, 0, 179, 0.5);  stroke: rgba(210, 77, 255, 0.25);  "></rect><rect class="rect" x="416.0188679245283" y="16.962264150943398" width="13.962264150943396" height="13.962264150943396" style="  animation-delay: 0.9219890527113701s;  fill: rgba(134, 0, 179, 1);  stroke: rgba(210, 77, 255, 0.5);  "></rect><rect class="rect" x="416.0188679245283" y="32.924528301886795" width="13.962264150943396" height="13.962264150943396" style="  animation-delay: 0.03878135823090667s;  fill: rgba(134, 0, 179, 5);  stroke: rgba(210, 77, 255, 2.5);  "></rect><rect class="rect" x="416.0188679245283" y="48.886792452830186" width="13.962264150943396" height="13.962264150943396" style="  animation-delay: 2.618563618372833s;  fill: rgba(134, 0, 179, 3.5);  stroke: rgba(210, 77, 255, 1.75);  "></rect><rect class="rect-off" x="416.0188679245283" y="64.84905660377359" width="13.962264150943396" height="13.962264150943396"></rect><rect class="rect" x="416.0188679245283" y="80.81132075471697" width="13.962264150943396" height="13.962264150943396" style="  animation-delay: 1.6642986492574334s;  fill: rgba(134, 0, 179, 3);  stroke: rgba(210, 77, 255, 1.5);  "></rect><rect class="rect" x="416.0188679245283" y="96.77358490566037" width="13.962264150943396" height="13.962264150943396" style="  animation-delay: 1.252638542425318s;  fill: rgba(134, 0, 179, 1.5);  stroke: rgba(210, 77, 255, 0.75);  "></rect><rect class="rect-off" x="431.9811320754717" y="1" width="13.962264150943396" height="13.962264150943396"></rect><rect class="rect" x="431.9811320754717" y="16.962264150943398" width="13.962264150943396" height="13.962264150943396" style="  animation-delay: 1.7945156662073796s;  fill: rgba(134, 0, 179, 0.5);  stroke: rgba(210, 77, 255, 0.25);  "></rect><rect class="rect-off" x="431.9811320754717" y="32.924528301886795" width="13.962264150943396" height="13.962264150943396"></rect><rect class="rect-off" x="431.9811320754717" y="48.886792452830186" width="13.962264150943396" height="13.962264150943396"></rect><rect class="rect" x="431.9811320754717" y="64.84905660377359" width="13.962264150943396" height="13.962264150943396" style="  animation-delay: 1.2657228556192544s;  fill: rgba(134, 0, 179, 1);  stroke: rgba(210, 77, 255, 0.5);  "></rect><rect class="rect-off" x="431.9811320754717" y="80.81132075471697" width="13.962264150943396" height="13.962264150943396"></rect><rect class="rect" x="431.9811320754717" y="96.77358490566037" width="13.962264150943396" height="13.962264150943396" style="  animation-delay: 1.9204567690754262s;  fill: rgba(134, 0, 179, 1);  stroke: rgba(210, 77, 255, 0.5);  "></rect><rect class="rect-off" x="447.9433962264151" y="1" width="13.962264150943396" height="13.962264150943396"></rect><rect class="rect" x="447.9433962264151" y="16.962264150943398" width="13.962264150943396" height="13.962264150943396" style="  animation-delay: 0.007506540864052891s;  fill: rgba(134, 0, 179, 0.5);  stroke: rgba(210, 77, 255, 0.25);  "></rect><rect class="rect" x="447.9433962264151" y="32.924528301886795" width="13.962264150943396" height="13.962264150943396" style="  animation-delay: 0.08946298744359305s;  fill: rgba(134, 0, 179, 1.5);  stroke: rgba(210, 77, 255, 0.75);  "></rect><rect class="rect-off" x="447.9433962264151" y="48.886792452830186" width="13.962264150943396" height="13.962264150943396"></rect><rect class="rect-off" x="447.9433962264151" y="64.84905660377359" width="13.962264150943396" height="13.962264150943396"></rect><rect class="rect" x="447.9433962264151" y="80.81132075471697" width="13.962264150943396" height="13.962264150943396" style="  animation-delay: 2.818437326001402s;  fill: rgba(134, 0, 179, 0.5);  stroke: rgba(210, 77, 255, 0.25);  "></rect><rect class="rect" x="447.9433962264151" y="96.77358490566037" width="13.962264150943396" height="13.962264150943396" style="  animation-delay: 1.7813417079827718s;  fill: rgba(134, 0, 179, 1.5);  stroke: rgba(210, 77, 255, 0.75);  "></rect><rect class="rect" x="463.90566037735846" y="1" width="13.962264150943396" height="13.962264150943396" style="  animation-delay: 1.9707329580460597s;  fill: rgba(134, 0, 179, 1);  stroke: rgba(210, 77, 255, 0.5);  "></rect><rect class="rect-off" x="463.90566037735846" y="16.962264150943398" width="13.962264150943396" height="13.962264150943396"></rect><rect class="rect-off" x="463.90566037735846" y="32.924528301886795" width="13.962264150943396" height="13.962264150943396"></rect><rect class="rect-off" x="463.90566037735846" y="48.886792452830186" width="13.962264150943396" height="13.962264150943396"></rect><rect class="rect-off" x="463.90566037735846" y="64.84905660377359" width="13.962264150943396" height="13.962264150943396"></rect><rect class="rect-off" x="463.90566037735846" y="80.81132075471697" width="13.962264150943396" height="13.962264150943396"></rect><rect class="rect-off" x="463.90566037735846" y="96.77358490566037" width="13.962264150943396" height="13.962264150943396"></rect><rect class="rect-off" x="479.8679245283019" y="1" width="13.962264150943396" height="13.962264150943396"></rect><rect class="rect-off" x="479.8679245283019" y="16.962264150943398" width="13.962264150943396" height="13.962264150943396"></rect><rect class="rect-off" x="479.8679245283019" y="32.924528301886795" width="13.962264150943396" height="13.962264150943396"></rect><rect class="rect-off" x="479.8679245283019" y="48.886792452830186" width="13.962264150943396" height="13.962264150943396"></rect><rect class="rect-off" x="479.8679245283019" y="64.84905660377359" width="13.962264150943396" height="13.962264150943396"></rect><rect class="rect-off" x="479.8679245283019" y="80.81132075471697" width="13.962264150943396" height="13.962264150943396"></rect><rect class="rect" x="479.8679245283019" y="96.77358490566037" width="13.962264150943396" height="13.962264150943396" style="  animation-delay: 0.5406525554788006s;  fill: rgba(134, 0, 179, 0.5);  stroke: rgba(210, 77, 255, 0.25);  "></rect><rect class="rect-off" x="495.8301886792453" y="1" width="13.962264150943396" height="13.962264150943396"></rect><rect class="rect-off" x="495.8301886792453" y="16.962264150943398" width="13.962264150943396" height="13.962264150943396"></rect><rect class="rect-off" x="495.8301886792453" y="32.924528301886795" width="13.962264150943396" height="13.962264150943396"></rect><rect class="rect-off" x="495.8301886792453" y="48.886792452830186" width="13.962264150943396" height="13.962264150943396"></rect><rect class="rect-off" x="495.8301886792453" y="64.84905660377359" width="13.962264150943396" height="13.962264150943396"></rect><rect class="rect-off" x="495.8301886792453" y="80.81132075471697" width="13.962264150943396" height="13.962264150943396"></rect><rect class="rect-off" x="495.8301886792453" y="96.77358490566037" width="13.962264150943396" height="13.962264150943396"></rect><rect class="rect-off" x="511.79245283018867" y="1" width="13.962264150943396" height="13.962264150943396"></rect><rect class="rect-off" x="511.79245283018867" y="16.962264150943398" width="13.962264150943396" height="13.962264150943396"></rect><rect class="rect-off" x="511.79245283018867" y="32.924528301886795" width="13.962264150943396" height="13.962264150943396"></rect><rect class="rect-off" x="511.79245283018867" y="48.886792452830186" width="13.962264150943396" height="13.962264150943396"></rect><rect class="rect" x="511.79245283018867" y="64.84905660377359" width="13.962264150943396" height="13.962264150943396" style="  animation-delay: 1.8141843482527065s;  fill: rgba(134, 0, 179, 0.5);  stroke: rgba(210, 77, 255, 0.25);  "></rect><rect class="rect-off" x="511.79245283018867" y="80.81132075471697" width="13.962264150943396" height="13.962264150943396"></rect><rect class="rect-off" x="511.79245283018867" y="96.77358490566037" width="13.962264150943396" height="13.962264150943396"></rect><rect class="rect-off" x="527.7547169811321" y="1" width="13.962264150943396" height="13.962264150943396"></rect><rect class="rect-off" x="527.7547169811321" y="16.962264150943398" width="13.962264150943396" height="13.962264150943396"></rect><rect class="rect-off" x="527.7547169811321" y="32.924528301886795" width="13.962264150943396" height="13.962264150943396"></rect><rect class="rect-off" x="527.7547169811321" y="48.886792452830186" width="13.962264150943396" height="13.962264150943396"></rect><rect class="rect-off" x="527.7547169811321" y="64.84905660377359" width="13.962264150943396" height="13.962264150943396"></rect><rect class="rect-off" x="527.7547169811321" y="80.81132075471697" width="13.962264150943396" height="13.962264150943396"></rect><rect class="rect-off" x="527.7547169811321" y="96.77358490566037" width="13.962264150943396" height="13.962264150943396"></rect><rect class="rect-off" x="543.7169811320755" y="1" width="13.962264150943396" height="13.962264150943396"></rect><rect class="rect-off" x="543.7169811320755" y="16.962264150943398" width="13.962264150943396" height="13.962264150943396"></rect><rect class="rect-off" x="543.7169811320755" y="32.924528301886795" width="13.962264150943396" height="13.962264150943396"></rect><rect class="rect-off" x="543.7169811320755" y="48.886792452830186" width="13.962264150943396" height="13.962264150943396"></rect><rect class="rect-off" x="543.7169811320755" y="64.84905660377359" width="13.962264150943396" height="13.962264150943396"></rect><rect class="rect-off" x="543.7169811320755" y="80.81132075471697" width="13.962264150943396" height="13.962264150943396"></rect><rect class="rect-off" x="543.7169811320755" y="96.77358490566037" width="13.962264150943396" height="13.962264150943396"></rect><rect class="rect-off" x="559.6792452830189" y="1" width="13.962264150943396" height="13.962264150943396"></rect><rect class="rect-off" x="559.6792452830189" y="16.962264150943398" width="13.962264150943396" height="13.962264150943396"></rect><rect class="rect-off" x="559.6792452830189" y="32.924528301886795" width="13.962264150943396" height="13.962264150943396"></rect><rect class="rect-off" x="559.6792452830189" y="48.886792452830186" width="13.962264150943396" height="13.962264150943396"></rect><rect class="rect-off" x="559.6792452830189" y="64.84905660377359" width="13.962264150943396" height="13.962264150943396"></rect><rect class="rect-off" x="559.6792452830189" y="80.81132075471697" width="13.962264150943396" height="13.962264150943396"></rect><rect class="rect-off" x="559.6792452830189" y="96.77358490566037" width="13.962264150943396" height="13.962264150943396"></rect><rect class="rect-off" x="575.6415094339623" y="1" width="13.962264150943396" height="13.962264150943396"></rect><rect class="rect-off" x="575.6415094339623" y="16.962264150943398" width="13.962264150943396" height="13.962264150943396"></rect><rect class="rect" x="575.6415094339623" y="32.924528301886795" width="13.962264150943396" height="13.962264150943396" style="  animation-delay: 2.000222367595166s;  fill: rgba(134, 0, 179, 2.5);  stroke: rgba(210, 77, 255, 1.25);  "></rect><rect class="rect-off" x="575.6415094339623" y="48.886792452830186" width="13.962264150943396" height="13.962264150943396"></rect><rect class="rect-off" x="575.6415094339623" y="64.84905660377359" width="13.962264150943396" height="13.962264150943396"></rect><rect class="rect" x="575.6415094339623" y="80.81132075471697" width="13.962264150943396" height="13.962264150943396" style="  animation-delay: 2.530749644505572s;  fill: rgba(134, 0, 179, 2.5);  stroke: rgba(210, 77, 255, 1.25);  "></rect><rect class="rect-off" x="575.6415094339623" y="96.77358490566037" width="13.962264150943396" height="13.962264150943396"></rect><rect class="rect" x="591.6037735849056" y="1" width="13.962264150943396" height="13.962264150943396" style="  animation-delay: 1.220351845217051s;  fill: rgba(134, 0, 179, 1);  stroke: rgba(210, 77, 255, 0.5);  "></rect><rect class="rect" x="591.6037735849056" y="16.962264150943398" width="13.962264150943396" height="13.962264150943396" style="  animation-delay: 1.8576858509174836s;  fill: rgba(134, 0, 179, 0.5);  stroke: rgba(210, 77, 255, 0.25);  "></rect><rect class="rect" x="591.6037735849056" y="32.924528301886795" width="13.962264150943396" height="13.962264150943396" style="  animation-delay: 0.7234549975584457s;  fill: rgba(134, 0, 179, 3.5);  stroke: rgba(210, 77, 255, 1.75);  "></rect><rect class="rect" x="591.6037735849056" y="48.886792452830186" width="13.962264150943396" height="13.962264150943396" style="  animation-delay: 2.444043678767115s;  fill: rgba(134, 0, 179, 3);  stroke: rgba(210, 77, 255, 1.5);  "></rect><rect class="rect" x="591.6037735849056" y="64.84905660377359" width="13.962264150943396" height="13.962264150943396" style="  animation-delay: 2.234176871713191s;  fill: rgba(134, 0, 179, 1.5);  stroke: rgba(210, 77, 255, 0.75);  "></rect><rect class="rect" x="591.6037735849056" y="80.81132075471697" width="13.962264150943396" height="13.962264150943396" style="  animation-delay: 0.3840384393873082s;  fill: rgba(134, 0, 179, 13);  stroke: rgba(210, 77, 255, 6.5);  "></rect><rect class="rect-off" x="591.6037735849056" y="96.77358490566037" width="13.962264150943396" height="13.962264150943396"></rect><rect class="rect-off" x="607.566037735849" y="1" width="13.962264150943396" height="13.962264150943396"></rect><rect class="rect" x="607.566037735849" y="16.962264150943398" width="13.962264150943396" height="13.962264150943396" style="  animation-delay: 0.2624207251196835s;  fill: rgba(134, 0, 179, 1);  stroke: rgba(210, 77, 255, 0.5);  "></rect><rect class="rect-off" x="607.566037735849" y="32.924528301886795" width="13.962264150943396" height="13.962264150943396"></rect><rect class="rect-off" x="607.566037735849" y="48.886792452830186" width="13.962264150943396" height="13.962264150943396"></rect><rect class="rect" x="607.566037735849" y="64.84905660377359" width="13.962264150943396" height="13.962264150943396" style="  animation-delay: 0.05810172436309924s;  fill: rgba(134, 0, 179, 1.5);  stroke: rgba(210, 77, 255, 0.75);  "></rect><rect class="rect" x="607.566037735849" y="80.81132075471697" width="13.962264150943396" height="13.962264150943396" style="  animation-delay: 2.818784195132948s;  fill: rgba(134, 0, 179, 2);  stroke: rgba(210, 77, 255, 1);  "></rect><rect class="rect" x="607.566037735849" y="96.77358490566037" width="13.962264150943396" height="13.962264150943396" style="  animation-delay: 2.0073671479034747s;  fill: rgba(134, 0, 179, 0.5);  stroke: rgba(210, 77, 255, 0.25);  "></rect><rect class="rect-off" x="623.5283018867924" y="1" width="13.962264150943396" height="13.962264150943396"></rect><rect class="rect" x="623.5283018867924" y="16.962264150943398" width="13.962264150943396" height="13.962264150943396" style="  animation-delay: 2.67778828637456s;  fill: rgba(134, 0, 179, 1.5);  stroke: rgba(210, 77, 255, 0.75);  "></rect><rect class="rect" x="623.5283018867924" y="32.924528301886795" width="13.962264150943396" height="13.962264150943396" style="  animation-delay: 1.3084960436213537s;  fill: rgba(134, 0, 179, 5.5);  stroke: rgba(210, 77, 255, 2.75);  "></rect><rect class="rect" x="623.5283018867924" y="48.886792452830186" width="13.962264150943396" height="13.962264150943396" style="  animation-delay: 0.9148820051241644s;  fill: rgba(134, 0, 179, 0.5);  stroke: rgba(210, 77, 255, 0.25);  "></rect><rect class="rect-off" x="623.5283018867924" y="64.84905660377359" width="13.962264150943396" height="13.962264150943396"></rect><rect class="rect" x="623.5283018867924" y="80.81132075471697" width="13.962264150943396" height="13.962264150943396" style="  animation-delay: 1.8477142212129116s;  fill: rgba(134, 0, 179, 1);  stroke: rgba(210, 77, 255, 0.5);  "></rect><rect class="rect-off" x="623.5283018867924" y="96.77358490566037" width="13.962264150943396" height="13.962264150943396"></rect><rect class="rect-off" x="639.4905660377358" y="1" width="13.962264150943396" height="13.962264150943396"></rect><rect class="rect-off" x="639.4905660377358" y="16.962264150943398" width="13.962264150943396" height="13.962264150943396"></rect><rect class="rect-off" x="639.4905660377358" y="32.924528301886795" width="13.962264150943396" height="13.962264150943396"></rect><rect class="rect-off" x="639.4905660377358" y="48.886792452830186" width="13.962264150943396" height="13.962264150943396"></rect><rect class="rect" x="639.4905660377358" y="64.84905660377359" width="13.962264150943396" height="13.962264150943396" style="  animation-delay: 2.586824318883818s;  fill: rgba(134, 0, 179, 1.5);  stroke: rgba(210, 77, 255, 0.75);  "></rect><rect class="rect" x="639.4905660377358" y="80.81132075471697" width="13.962264150943396" height="13.962264150943396" style="  animation-delay: 0.22338914408706878s;  fill: rgba(134, 0, 179, 3);  stroke: rgba(210, 77, 255, 1.5);  "></rect><rect class="rect-off" x="639.4905660377358" y="96.77358490566037" width="13.962264150943396" height="13.962264150943396"></rect><rect class="rect" x="655.4528301886792" y="1" width="13.962264150943396" height="13.962264150943396" style="  animation-delay: 0.3557441783480353s;  fill: rgba(134, 0, 179, 0.5);  stroke: rgba(210, 77, 255, 0.25);  "></rect><rect class="rect" x="655.4528301886792" y="16.962264150943398" width="13.962264150943396" height="13.962264150943396" style="  animation-delay: 2.8938875138703035s;  fill: rgba(134, 0, 179, 3);  stroke: rgba(210, 77, 255, 1.5);  "></rect><rect class="rect-off" x="655.4528301886792" y="32.924528301886795" width="13.962264150943396" height="13.962264150943396"></rect><rect class="rect-off" x="655.4528301886792" y="48.886792452830186" width="13.962264150943396" height="13.962264150943396"></rect><rect class="rect-off" x="655.4528301886792" y="64.84905660377359" width="13.962264150943396" height="13.962264150943396"></rect><rect class="rect-off" x="655.4528301886792" y="80.81132075471697" width="13.962264150943396" height="13.962264150943396"></rect><rect class="rect-off" x="655.4528301886792" y="96.77358490566037" width="13.962264150943396" height="13.962264150943396"></rect><rect class="rect-off" x="671.4150943396227" y="1" width="13.962264150943396" height="13.962264150943396"></rect><rect class="rect-off" x="671.4150943396227" y="16.962264150943398" width="13.962264150943396" height="13.962264150943396"></rect><rect class="rect-off" x="671.4150943396227" y="32.924528301886795" width="13.962264150943396" height="13.962264150943396"></rect><rect class="rect-off" x="671.4150943396227" y="48.886792452830186" width="13.962264150943396" height="13.962264150943396"></rect><rect class="rect" x="671.4150943396227" y="64.84905660377359" width="13.962264150943396" height="13.962264150943396" style="  animation-delay: 2.413064770289362s;  fill: rgba(134, 0, 179, 1.5);  stroke: rgba(210, 77, 255, 0.75);  "></rect><rect class="rect" x="671.4150943396227" y="80.81132075471697" width="13.962264150943396" height="13.962264150943396" style="  animation-delay: 0.01841434073235826s;  fill: rgba(134, 0, 179, 2);  stroke: rgba(210, 77, 255, 1);  "></rect><rect class="rect-off" x="671.4150943396227" y="96.77358490566037" width="13.962264150943396" height="13.962264150943396"></rect><rect class="rect-off" x="687.377358490566" y="1" width="13.962264150943396" height="13.962264150943396"></rect><rect class="rect" x="687.377358490566" y="16.962264150943398" width="13.962264150943396" height="13.962264150943396" style="  animation-delay: 2.8728522863738513s;  fill: rgba(134, 0, 179, 0.5);  stroke: rgba(210, 77, 255, 0.25);  "></rect><rect class="rect" x="687.377358490566" y="32.924528301886795" width="13.962264150943396" height="13.962264150943396" style="  animation-delay: 1.428806144763729s;  fill: rgba(134, 0, 179, 1);  stroke: rgba(210, 77, 255, 0.5);  "></rect><rect class="rect" x="687.377358490566" y="48.886792452830186" width="13.962264150943396" height="13.962264150943396" style="  animation-delay: 0.26446566687681905s;  fill: rgba(134, 0, 179, 1);  stroke: rgba(210, 77, 255, 0.5);  "></rect><rect class="rect-off" x="687.377358490566" y="64.84905660377359" width="13.962264150943396" height="13.962264150943396"></rect><rect class="rect-off" x="687.377358490566" y="80.81132075471697" width="13.962264150943396" height="13.962264150943396"></rect><rect class="rect" x="687.377358490566" y="96.77358490566037" width="13.962264150943396" height="13.962264150943396" style="  animation-delay: 2.458866028140866s;  fill: rgba(134, 0, 179, 1);  stroke: rgba(210, 77, 255, 0.5);  "></rect><rect class="rect-off" x="703.3396226415094" y="1" width="13.962264150943396" height="13.962264150943396"></rect><rect class="rect" x="703.3396226415094" y="16.962264150943398" width="13.962264150943396" height="13.962264150943396" style="  animation-delay: 0.5913762895503152s;  fill: rgba(134, 0, 179, 0.5);  stroke: rgba(210, 77, 255, 0.25);  "></rect><rect class="rect-off" x="703.3396226415094" y="32.924528301886795" width="13.962264150943396" height="13.962264150943396"></rect><rect class="rect" x="703.3396226415094" y="48.886792452830186" width="13.962264150943396" height="13.962264150943396" style="  animation-delay: 2.6710134748637833s;  fill: rgba(134, 0, 179, 3);  stroke: rgba(210, 77, 255, 1.5);  "></rect><rect class="rect-off" x="703.3396226415094" y="64.84905660377359" width="13.962264150943396" height="13.962264150943396"></rect><rect class="rect-off" x="703.3396226415094" y="80.81132075471697" width="13.962264150943396" height="13.962264150943396"></rect><rect class="rect-off" x="703.3396226415094" y="96.77358490566037" width="13.962264150943396" height="13.962264150943396"></rect><rect class="rect-off" x="719.3018867924528" y="1" width="13.962264150943396" height="13.962264150943396"></rect><rect class="rect" x="719.3018867924528" y="16.962264150943398" width="13.962264150943396" height="13.962264150943396" style="  animation-delay: 2.9190445512724343s;  fill: rgba(134, 0, 179, 2.5);  stroke: rgba(210, 77, 255, 1.25);  "></rect><rect class="rect-off" x="719.3018867924528" y="32.924528301886795" width="13.962264150943396" height="13.962264150943396"></rect><rect class="rect-off" x="719.3018867924528" y="48.886792452830186" width="13.962264150943396" height="13.962264150943396"></rect><rect class="rect-off" x="719.3018867924528" y="64.84905660377359" width="13.962264150943396" height="13.962264150943396"></rect><rect class="rect" x="719.3018867924528" y="80.81132075471697" width="13.962264150943396" height="13.962264150943396" style="  animation-delay: 2.3270276287661886s;  fill: rgba(134, 0, 179, 0.5);  stroke: rgba(210, 77, 255, 0.25);  "></rect><rect class="rect" x="719.3018867924528" y="96.77358490566037" width="13.962264150943396" height="13.962264150943396" style="  animation-delay: 1.5505209208343034s;  fill: rgba(134, 0, 179, 1);  stroke: rgba(210, 77, 255, 0.5);  "></rect><rect class="rect" x="735.2641509433962" y="1" width="13.962264150943396" height="13.962264150943396" style="  animation-delay: 0.5603701207526799s;  fill: rgba(134, 0, 179, 2);  stroke: rgba(210, 77, 255, 1);  "></rect><rect class="rect-off" x="735.2641509433962" y="16.962264150943398" width="13.962264150943396" height="13.962264150943396"></rect><rect class="rect-off" x="735.2641509433962" y="32.924528301886795" width="13.962264150943396" height="13.962264150943396"></rect><rect class="rect-off" x="735.2641509433962" y="48.886792452830186" width="13.962264150943396" height="13.962264150943396"></rect><rect class="rect-off" x="735.2641509433962" y="64.84905660377359" width="13.962264150943396" height="13.962264150943396"></rect><rect class="rect-off" x="735.2641509433962" y="80.81132075471697" width="13.962264150943396" height="13.962264150943396"></rect><rect class="rect-off" x="735.2641509433962" y="96.77358490566037" width="13.962264150943396" height="13.962264150943396"></rect><rect class="rect-off" x="751.2264150943396" y="1" width="13.962264150943396" height="13.962264150943396"></rect><rect class="rect-off" x="751.2264150943396" y="16.962264150943398" width="13.962264150943396" height="13.962264150943396"></rect><rect class="rect-off" x="751.2264150943396" y="32.924528301886795" width="13.962264150943396" height="13.962264150943396"></rect><rect class="rect-off" x="751.2264150943396" y="48.886792452830186" width="13.962264150943396" height="13.962264150943396"></rect><rect class="rect-off" x="751.2264150943396" y="64.84905660377359" width="13.962264150943396" height="13.962264150943396"></rect><rect class="rect-off" x="751.2264150943396" y="80.81132075471697" width="13.962264150943396" height="13.962264150943396"></rect><rect class="rect-off" x="751.2264150943396" y="96.77358490566037" width="13.962264150943396" height="13.962264150943396"></rect><rect class="rect-off" x="767.188679245283" y="1" width="13.962264150943396" height="13.962264150943396"></rect><rect class="rect-off" x="767.188679245283" y="16.962264150943398" width="13.962264150943396" height="13.962264150943396"></rect><rect class="rect-off" x="767.188679245283" y="32.924528301886795" width="13.962264150943396" height="13.962264150943396"></rect><rect class="rect-off" x="767.188679245283" y="48.886792452830186" width="13.962264150943396" height="13.962264150943396"></rect><rect class="rect-off" x="767.188679245283" y="64.84905660377359" width="13.962264150943396" height="13.962264150943396"></rect><rect class="rect" x="767.188679245283" y="80.81132075471697" width="13.962264150943396" height="13.962264150943396" style="  animation-delay: 0.5478621200238232s;  fill: rgba(134, 0, 179, 1);  stroke: rgba(210, 77, 255, 0.5);  "></rect><rect class="rect" x="767.188679245283" y="96.77358490566037" width="13.962264150943396" height="13.962264150943396" style="  animation-delay: 1.338955682676961s;  fill: rgba(134, 0, 179, 2);  stroke: rgba(210, 77, 255, 1);  "></rect><rect class="rect" x="783.1509433962264" y="1" width="13.962264150943396" height="13.962264150943396" style="  animation-delay: 0.18357264693518394s;  fill: rgba(134, 0, 179, 1);  stroke: rgba(210, 77, 255, 0.5);  "></rect><rect class="rect-off" x="783.1509433962264" y="16.962264150943398" width="13.962264150943396" height="13.962264150943396"></rect><rect class="rect" x="783.1509433962264" y="32.924528301886795" width="13.962264150943396" height="13.962264150943396" style="  animation-delay: 2.632435303117039s;  fill: rgba(134, 0, 179, 1);  stroke: rgba(210, 77, 255, 0.5);  "></rect><rect class="rect-off" x="783.1509433962264" y="48.886792452830186" width="13.962264150943396" height="13.962264150943396"></rect><rect class="rect-off" x="783.1509433962264" y="64.84905660377359" width="13.962264150943396" height="13.962264150943396"></rect><rect class="rect-off" x="783.1509433962264" y="80.81132075471697" width="13.962264150943396" height="13.962264150943396"></rect><rect class="rect-off" x="783.1509433962264" y="96.77358490566037" width="13.962264150943396" height="13.962264150943396"></rect><rect class="rect-off" x="799.1132075471697" y="1" width="13.962264150943396" height="13.962264150943396"></rect><rect class="rect-off" x="799.1132075471697" y="16.962264150943398" width="13.962264150943396" height="13.962264150943396"></rect><rect class="rect" x="799.1132075471697" y="32.924528301886795" width="13.962264150943396" height="13.962264150943396" style="  animation-delay: 1.4832424767324213s;  fill: rgba(134, 0, 179, 4.5);  stroke: rgba(210, 77, 255, 2.25);  "></rect><rect class="rect" x="799.1132075471697" y="48.886792452830186" width="13.962264150943396" height="13.962264150943396" style="  animation-delay: 1.4095344186595358s;  fill: rgba(134, 0, 179, 2.5);  stroke: rgba(210, 77, 255, 1.25);  "></rect><rect class="rect" x="799.1132075471697" y="64.84905660377359" width="13.962264150943396" height="13.962264150943396" style="  animation-delay: 1.538129397092971s;  fill: rgba(134, 0, 179, 3.5);  stroke: rgba(210, 77, 255, 1.75);  "></rect><rect class="rect" x="799.1132075471697" y="80.81132075471697" width="13.962264150943396" height="13.962264150943396" style="  animation-delay: 2.357867072616493s;  fill: rgba(134, 0, 179, 1);  stroke: rgba(210, 77, 255, 0.5);  "></rect><rect class="rect-off" x="799.1132075471697" y="96.77358490566037" width="13.962264150943396" height="13.962264150943396"></rect><rect class="rect-off" x="815.0754716981132" y="1" width="13.962264150943396" height="13.962264150943396"></rect><rect class="rect" x="815.0754716981132" y="16.962264150943398" width="13.962264150943396" height="13.962264150943396" style="  animation-delay: 0.33946907685123295s;  fill: rgba(134, 0, 179, 2.5);  stroke: rgba(210, 77, 255, 1.25);  "></rect><rect class="rect" x="815.0754716981132" y="32.924528301886795" width="13.962264150943396" height="13.962264150943396" style="  animation-delay: 2.5752911763362545s;  fill: rgba(134, 0, 179, 1.5);  stroke: rgba(210, 77, 255, 0.75);  "></rect><rect class="rect-off" x="815.0754716981132" y="48.886792452830186" width="13.962264150943396" height="13.962264150943396"></rect><rect class="rect" x="815.0754716981132" y="64.84905660377359" width="13.962264150943396" height="13.962264150943396" style="  animation-delay: 0.19452876179345013s;  fill: rgba(134, 0, 179, 2.5);  stroke: rgba(210, 77, 255, 1.25);  "></rect><rect class="rect" x="815.0754716981132" y="80.81132075471697" width="13.962264150943396" height="13.962264150943396" style="  animation-delay: 1.2757829383812402s;  fill: rgba(134, 0, 179, 8.5);  stroke: rgba(210, 77, 255, 4.25);  "></rect><rect class="rect" x="815.0754716981132" y="96.77358490566037" width="13.962264150943396" height="13.962264150943396" style="  animation-delay: 2.234168801761271s;  fill: rgba(134, 0, 179, 2.5);  stroke: rgba(210, 77, 255, 1.25);  "></rect><rect class="rect-off" x="831.0377358490566" y="1" width="13.962264150943396" height="13.962264150943396"></rect><rect class="rect" x="831.0377358490566" y="16.962264150943398" width="13.962264150943396" height="13.962264150943396" style="  animation-delay: 2.1172025447959526s;  fill: rgba(134, 0, 179, 3.5);  stroke: rgba(210, 77, 255, 1.75);  "></rect></svg>