<svg viewBox="0 0 846 111.73584905660377" width="846" height="111.73584905660377" xmlns="http://www.w3.org/2000/svg"> <style> .rect { fill: #8600b3; stroke-width: 1.7px; stroke: #d24dff22; stroke-dasharray: 100; animation: dash 18s linear; animation-iteration-count: infinite; } @keyframes dash { from { stroke-dashoffset: 822; } to { stroke-dashoffset: 0; } } .rect-off { fill: #25003311; stroke-width: 0.4px; stroke: #d24dff44; } </style><rect class="rect-off" x="1" y="1" width="13.962264150943396" height="13.962264150943396"></rect><rect class="rect-off" x="1" y="16.962264150943398" width="13.962264150943396" height="13.962264150943396"></rect><rect class="rect-off" x="1" y="32.924528301886795" width="13.962264150943396" height="13.962264150943396"></rect><rect class="rect-off" x="1" y="48.886792452830186" width="13.962264150943396" height="13.962264150943396"></rect><rect class="rect-off" x="1" y="64.84905660377359" width="13.962264150943396" height="13.962264150943396"></rect><rect class="rect-off" x="1" y="80.81132075471697" width="13.962264150943396" height="13.962264150943396"></rect><rect class="rect-off" x="1" y="96.77358490566037" width="13.962264150943396" height="13.962264150943396"></rect><rect class="rect" x="17.962264150943398" y="2" width="11.962264150943396" height="11.962264150943396" style=" animation-delay: 1.8911551382902452s; fill: rgba(134, 0, 179, 1); stroke: rgba(210, 77, 255, 0.5); "></rect><rect class="rect" x="17.962264150943398" y="17.962264150943398" width="11.962264150943396" height="11.962264150943396" style=" animation-delay: 1.1340046432114457s; fill: rgba(134, 0, 179, 0.5); stroke: rgba(210, 77, 255, 0.25); "></rect><rect class="rect-off" x="16.962264150943398" y="32.924528301886795" width="13.962264150943396" height="13.962264150943396"></rect><rect class="rect-off" x="16.962264150943398" y="48.886792452830186" width="13.962264150943396" height="13.962264150943396"></rect><rect class="rect-off" x="16.962264150943398" y="64.84905660377359" width="13.962264150943396" height="13.962264150943396"></rect><rect class="rect-off" x="16.962264150943398" y="80.81132075471697" width="13.962264150943396" height="13.962264150943396"></rect><rect class="rect-off" x="16.962264150943398" y="96.77358490566037" width="13.962264150943396" height="13.962264150943396"></rect><rect class="rect" x="33.924528301886795" y="2" width="11.962264150943396" height="11.962264150943396" style=" animation-delay: 0.7471704460662221s; fill: rgba(134, 0, 179, 1.5); stroke: rgba(210, 77, 255, 0.75); "></rect><rect class="rect" x="33.924528301886795" y="17.962264150943398" width="11.962264150943396" height="11.962264150943396" style=" animation-delay: 2.5464454381287043s; fill: rgba(134, 0, 179, 9); stroke: rgba(210, 77, 255, 4.5); "></rect><rect class="rect-off" x="32.924528301886795" y="32.924528301886795" width="13.962264150943396" height="13.962264150943396"></rect><rect class="rect-off" x="32.924528301886795" y="48.886792452830186" width="13.962264150943396" height="13.962264150943396"></rect><rect class="rect-off" x="32.924528301886795" y="64.84905660377359" width="13.962264150943396" height="13.962264150943396"></rect><rect class="rect-off" x="32.924528301886795" y="80.81132075471697" width="13.962264150943396" height="13.962264150943396"></rect><rect class="rect-off" x="32.924528301886795" y="96.77358490566037" width="13.962264150943396" height="13.962264150943396"></rect><rect class="rect-off" x="48.886792452830186" y="1" width="13.962264150943396" height="13.962264150943396"></rect><rect class="rect-off" x="48.886792452830186" y="16.962264150943398" width="13.962264150943396" height="13.962264150943396"></rect><rect class="rect" x="49.886792452830186" y="33.924528301886795" width="11.962264150943396" height="11.962264150943396" style=" animation-delay: 1.1511567300628485s; fill: rgba(134, 0, 179, 2.5); stroke: rgba(210, 77, 255, 1.25); "></rect><rect class="rect" x="49.886792452830186" y="49.886792452830186" width="11.962264150943396" height="11.962264150943396" style=" animation-delay: 1.6730579888042267s; fill: rgba(134, 0, 179, 1); stroke: rgba(210, 77, 255, 0.5); "></rect><rect class="rect-off" x="48.886792452830186" y="64.84905660377359" width="13.962264150943396" height="13.962264150943396"></rect><rect class="rect" x="49.886792452830186" y="81.81132075471697" width="11.962264150943396" height="11.962264150943396" style=" animation-delay: 0.6694821722846149s; fill: rgba(134, 0, 179, 0.5); stroke: rgba(210, 77, 255, 0.25); "></rect><rect class="rect" x="49.886792452830186" y="97.77358490566037" width="11.962264150943396" height="11.962264150943396" style=" animation-delay: 1.3169716999644625s; fill: rgba(134, 0, 179, 0.5); stroke: rgba(210, 77, 255, 0.25); "></rect><rect class="rect-off" x="64.84905660377359" y="1" width="13.962264150943396" height="13.962264150943396"></rect><rect class="rect" x="65.84905660377359" y="17.962264150943398" width="11.962264150943396" height="11.962264150943396" style=" animation-delay: 1.3521055795229466s; fill: rgba(134, 0, 179, 0.5); stroke: rgba(210, 77, 255, 0.25); "></rect><rect class="rect-off" x="64.84905660377359" y="32.924528301886795" width="13.962264150943396" height="13.962264150943396"></rect><rect class="rect-off" x="64.84905660377359" y="48.886792452830186" width="13.962264150943396" height="13.962264150943396"></rect><rect class="rect-off" x="64.84905660377359" y="64.84905660377359" width="13.962264150943396" height="13.962264150943396"></rect><rect class="rect-off" x="64.84905660377359" y="80.81132075471697" width="13.962264150943396" height="13.962264150943396"></rect><rect class="rect-off" x="64.84905660377359" y="96.77358490566037" width="13.962264150943396" height="13.962264150943396"></rect><rect class="rect-off" x="80.81132075471697" y="1" width="13.962264150943396" height="13.962264150943396"></rect><rect class="rect-off" x="80.81132075471697" y="16.962264150943398" width="13.962264150943396" height="13.962264150943396"></rect><rect class="rect-off" x="80.81132075471697" y="32.924528301886795" width="13.962264150943396" height="13.962264150943396"></rect><rect class="rect-off" x="80.81132075471697" y="48.886792452830186" width="13.962264150943396" height="13.962264150943396"></rect><rect class="rect-off" x="80.81132075471697" y="64.84905660377359" width="13.962264150943396" height="13.962264150943396"></rect><rect class="rect-off" x="80.81132075471697" y="80.81132075471697" width="13.962264150943396" height="13.962264150943396"></rect><rect class="rect-off" x="80.81132075471697" y="96.77358490566037" width="13.962264150943396" height="13.962264150943396"></rect><rect class="rect-off" x="96.77358490566037" y="1" width="13.962264150943396" height="13.962264150943396"></rect><rect class="rect-off" x="96.77358490566037" y="16.962264150943398" width="13.962264150943396" height="13.962264150943396"></rect><rect class="rect-off" x="96.77358490566037" y="32.924528301886795" width="13.962264150943396" height="13.962264150943396"></rect><rect class="rect-off" x="96.77358490566037" y="48.886792452830186" width="13.962264150943396" height="13.962264150943396"></rect><rect class="rect-off" x="96.77358490566037" y="64.84905660377359" width="13.962264150943396" height="13.962264150943396"></rect><rect class="rect-off" x="96.77358490566037" y="80.81132075471697" width="13.962264150943396" height="13.962264150943396"></rect><rect class="rect-off" x="96.77358490566037" y="96.77358490566037" width="13.962264150943396" height="13.962264150943396"></rect><rect class="rect" x="113.73584905660377" y="2" width="11.962264150943396" height="11.962264150943396" style=" animation-delay: 0.7968371822481872s; fill: rgba(134, 0, 179, 0.5); stroke: rgba(210, 77, 255, 0.25); "></rect><rect class="rect-off" x="112.73584905660377" y="16.962264150943398" width="13.962264150943396" height="13.962264150943396"></rect><rect class="rect-off" x="112.73584905660377" y="32.924528301886795" width="13.962264150943396" height="13.962264150943396"></rect><rect class="rect-off" x="112.73584905660377" y="48.886792452830186" width="13.962264150943396" height="13.962264150943396"></rect><rect class="rect-off" x="112.73584905660377" y="64.84905660377359" width="13.962264150943396" height="13.962264150943396"></rect><rect class="rect" x="113.73584905660377" y="81.81132075471697" width="11.962264150943396" height="11.962264150943396" style=" animation-delay: 2.6362065604195886s; fill: rgba(134, 0, 179, 1); stroke: rgba(210, 77, 255, 0.5); "></rect><rect class="rect-off" x="112.73584905660377" y="96.77358490566037" width="13.962264150943396" height="13.962264150943396"></rect><rect class="rect-off" x="128.69811320754718" y="1" width="13.962264150943396" height="13.962264150943396"></rect><rect class="rect-off" x="128.69811320754718" y="16.962264150943398" width="13.962264150943396" height="13.962264150943396"></rect><rect class="rect-off" x="128.69811320754718" y="32.924528301886795" width="13.962264150943396" height="13.962264150943396"></rect><rect class="rect-off" x="128.69811320754718" y="48.886792452830186" width="13.962264150943396" height="13.962264150943396"></rect><rect class="rect-off" x="128.69811320754718" y="64.84905660377359" width="13.962264150943396" height="13.962264150943396"></rect><rect class="rect-off" x="128.69811320754718" y="80.81132075471697" width="13.962264150943396" height="13.962264150943396"></rect><rect class="rect-off" x="128.69811320754718" y="96.77358490566037" width="13.962264150943396" height="13.962264150943396"></rect><rect class="rect-off" x="144.66037735849056" y="1" width="13.962264150943396" height="13.962264150943396"></rect><rect class="rect-off" x="144.66037735849056" y="16.962264150943398" width="13.962264150943396" height="13.962264150943396"></rect><rect class="rect-off" x="144.66037735849056" y="32.924528301886795" width="13.962264150943396" height="13.962264150943396"></rect><rect class="rect-off" x="144.66037735849056" y="48.886792452830186" width="13.962264150943396" height="13.962264150943396"></rect><rect class="rect-off" x="144.66037735849056" y="64.84905660377359" width="13.962264150943396" height="13.962264150943396"></rect><rect class="rect-off" x="144.66037735849056" y="80.81132075471697" width="13.962264150943396" height="13.962264150943396"></rect><rect class="rect-off" x="144.66037735849056" y="96.77358490566037" width="13.962264150943396" height="13.962264150943396"></rect><rect class="rect-off" x="160.62264150943395" y="1" width="13.962264150943396" height="13.962264150943396"></rect><rect class="rect-off" x="160.62264150943395" y="16.962264150943398" width="13.962264150943396" height="13.962264150943396"></rect><rect class="rect-off" x="160.62264150943395" y="32.924528301886795" width="13.962264150943396" height="13.962264150943396"></rect><rect class="rect-off" x="160.62264150943395" y="48.886792452830186" width="13.962264150943396" height="13.962264150943396"></rect><rect class="rect-off" x="160.62264150943395" y="64.84905660377359" width="13.962264150943396" height="13.962264150943396"></rect><rect class="rect-off" x="160.62264150943395" y="80.81132075471697" width="13.962264150943396" height="13.962264150943396"></rect><rect class="rect-off" x="160.62264150943395" y="96.77358490566037" width="13.962264150943396" height="13.962264150943396"></rect><rect class="rect-off" x="176.58490566037736" y="1" width="13.962264150943396" height="13.962264150943396"></rect><rect class="rect-off" x="176.58490566037736" y="16.962264150943398" width="13.962264150943396" height="13.962264150943396"></rect><rect class="rect-off" x="176.58490566037736" y="32.924528301886795" width="13.962264150943396" height="13.962264150943396"></rect><rect class="rect-off" x="176.58490566037736" y="48.886792452830186" width="13.962264150943396" height="13.962264150943396"></rect><rect class="rect-off" x="176.58490566037736" y="64.84905660377359" width="13.962264150943396" height="13.962264150943396"></rect><rect class="rect-off" x="176.58490566037736" y="80.81132075471697" width="13.962264150943396" height="13.962264150943396"></rect><rect class="rect-off" x="176.58490566037736" y="96.77358490566037" width="13.962264150943396" height="13.962264150943396"></rect><rect class="rect-off" x="192.54716981132074" y="1" width="13.962264150943396" height="13.962264150943396"></rect><rect class="rect-off" x="192.54716981132074" y="16.962264150943398" width="13.962264150943396" height="13.962264150943396"></rect><rect class="rect-off" x="192.54716981132074" y="32.924528301886795" width="13.962264150943396" height="13.962264150943396"></rect><rect class="rect-off" x="192.54716981132074" y="48.886792452830186" width="13.962264150943396" height="13.962264150943396"></rect><rect class="rect-off" x="192.54716981132074" y="64.84905660377359" width="13.962264150943396" height="13.962264150943396"></rect><rect class="rect-off" x="192.54716981132074" y="80.81132075471697" width="13.962264150943396" height="13.962264150943396"></rect><rect class="rect-off" x="192.54716981132074" y="96.77358490566037" width="13.962264150943396" height="13.962264150943396"></rect><rect class="rect-off" x="208.50943396226415" y="1" width="13.962264150943396" height="13.962264150943396"></rect><rect class="rect-off" x="208.50943396226415" y="16.962264150943398" width="13.962264150943396" height="13.962264150943396"></rect><rect class="rect-off" x="208.50943396226415" y="32.924528301886795" width="13.962264150943396" height="13.962264150943396"></rect><rect class="rect-off" x="208.50943396226415" y="48.886792452830186" width="13.962264150943396" height="13.962264150943396"></rect><rect class="rect-off" x="208.50943396226415" y="64.84905660377359" width="13.962264150943396" height="13.962264150943396"></rect><rect class="rect-off" x="208.50943396226415" y="80.81132075471697" width="13.962264150943396" height="13.962264150943396"></rect><rect class="rect-off" x="208.50943396226415" y="96.77358490566037" width="13.962264150943396" height="13.962264150943396"></rect><rect class="rect-off" x="224.47169811320754" y="1" width="13.962264150943396" height="13.962264150943396"></rect><rect class="rect-off" x="224.47169811320754" y="16.962264150943398" width="13.962264150943396" height="13.962264150943396"></rect><rect class="rect-off" x="224.47169811320754" y="32.924528301886795" width="13.962264150943396" height="13.962264150943396"></rect><rect class="rect-off" x="224.47169811320754" y="48.886792452830186" width="13.962264150943396" height="13.962264150943396"></rect><rect class="rect-off" x="224.47169811320754" y="64.84905660377359" width="13.962264150943396" height="13.962264150943396"></rect><rect class="rect-off" x="224.47169811320754" y="80.81132075471697" width="13.962264150943396" height="13.962264150943396"></rect><rect class="rect-off" x="224.47169811320754" y="96.77358490566037" width="13.962264150943396" height="13.962264150943396"></rect><rect class="rect-off" x="240.43396226415095" y="1" width="13.962264150943396" height="13.962264150943396"></rect><rect class="rect-off" x="240.43396226415095" y="16.962264150943398" width="13.962264150943396" height="13.962264150943396"></rect><rect class="rect" x="241.43396226415095" y="33.924528301886795" width="11.962264150943396" height="11.962264150943396" style=" animation-delay: 1.4170399399592204s; fill: rgba(134, 0, 179, 1.5); stroke: rgba(210, 77, 255, 0.75); "></rect><rect class="rect-off" x="240.43396226415095" y="48.886792452830186" width="13.962264150943396" height="13.962264150943396"></rect><rect class="rect-off" x="240.43396226415095" y="64.84905660377359" width="13.962264150943396" height="13.962264150943396"></rect><rect class="rect-off" x="240.43396226415095" y="80.81132075471697" width="13.962264150943396" height="13.962264150943396"></rect><rect class="rect-off" x="240.43396226415095" y="96.77358490566037" width="13.962264150943396" height="13.962264150943396"></rect><rect class="rect-off" x="256.39622641509436" y="1" width="13.962264150943396" height="13.962264150943396"></rect><rect class="rect-off" x="256.39622641509436" y="16.962264150943398" width="13.962264150943396" height="13.962264150943396"></rect><rect class="rect-off" x="256.39622641509436" y="32.924528301886795" width="13.962264150943396" height="13.962264150943396"></rect><rect class="rect-off" x="256.39622641509436" y="48.886792452830186" width="13.962264150943396" height="13.962264150943396"></rect><rect class="rect-off" x="256.39622641509436" y="64.84905660377359" width="13.962264150943396" height="13.962264150943396"></rect><rect class="rect-off" x="256.39622641509436" y="80.81132075471697" width="13.962264150943396" height="13.962264150943396"></rect><rect class="rect-off" x="256.39622641509436" y="96.77358490566037" width="13.962264150943396" height="13.962264150943396"></rect><rect class="rect" x="273.35849056603774" y="2" width="11.962264150943396" height="11.962264150943396" style=" animation-delay: 0.07592282965410146s; fill: rgba(134, 0, 179, 0.5); stroke: rgba(210, 77, 255, 0.25); "></rect><rect class="rect-off" x="272.35849056603774" y="16.962264150943398" width="13.962264150943396" height="13.962264150943396"></rect><rect class="rect-off" x="272.35849056603774" y="32.924528301886795" width="13.962264150943396" height="13.962264150943396"></rect><rect class="rect-off" x="272.35849056603774" y="48.886792452830186" width="13.962264150943396" height="13.962264150943396"></rect><rect class="rect-off" x="272.35849056603774" y="64.84905660377359" width="13.962264150943396" height="13.962264150943396"></rect><rect class="rect-off" x="272.35849056603774" y="80.81132075471697" width="13.962264150943396" height="13.962264150943396"></rect><rect class="rect-off" x="272.35849056603774" y="96.77358490566037" width="13.962264150943396" height="13.962264150943396"></rect><rect class="rect-off" x="288.3207547169811" y="1" width="13.962264150943396" height="13.962264150943396"></rect><rect class="rect-off" x="288.3207547169811" y="16.962264150943398" width="13.962264150943396" height="13.962264150943396"></rect><rect class="rect-off" x="288.3207547169811" y="32.924528301886795" width="13.962264150943396" height="13.962264150943396"></rect><rect class="rect-off" x="288.3207547169811" y="48.886792452830186" width="13.962264150943396" height="13.962264150943396"></rect><rect class="rect-off" x="288.3207547169811" y="64.84905660377359" width="13.962264150943396" height="13.962264150943396"></rect><rect class="rect-off" x="288.3207547169811" y="80.81132075471697" width="13.962264150943396" height="13.962264150943396"></rect><rect class="rect-off" x="288.3207547169811" y="96.77358490566037" width="13.962264150943396" height="13.962264150943396"></rect><rect class="rect" x="305.2830188679245" y="2" width="11.962264150943396" height="11.962264150943396" style=" animation-delay: 0.44572926023168913s; fill: rgba(134, 0, 179, 1); stroke: rgba(210, 77, 255, 0.5); "></rect><rect class="rect-off" x="304.2830188679245" y="16.962264150943398" width="13.962264150943396" height="13.962264150943396"></rect><rect class="rect-off" x="304.2830188679245" y="32.924528301886795" width="13.962264150943396" height="13.962264150943396"></rect><rect class="rect-off" x="304.2830188679245" y="48.886792452830186" width="13.962264150943396" height="13.962264150943396"></rect><rect class="rect-off" x="304.2830188679245" y="64.84905660377359" width="13.962264150943396" height="13.962264150943396"></rect><rect class="rect" x="305.2830188679245" y="81.81132075471697" width="11.962264150943396" height="11.962264150943396" style=" animation-delay: 2.3252534504449565s; fill: rgba(134, 0, 179, 0.5); stroke: rgba(210, 77, 255, 0.25); "></rect><rect class="rect" x="305.2830188679245" y="97.77358490566037" width="11.962264150943396" height="11.962264150943396" style=" animation-delay: 1.781894256022089s; fill: rgba(134, 0, 179, 1); stroke: rgba(210, 77, 255, 0.5); "></rect><rect class="rect" x="321.2452830188679" y="2" width="11.962264150943396" height="11.962264150943396" style=" animation-delay: 1.8194231164754973s; fill: rgba(134, 0, 179, 35.5); stroke: rgba(210, 77, 255, 17.75); "></rect><rect class="rect-off" x="320.2452830188679" y="16.962264150943398" width="13.962264150943396" height="13.962264150943396"></rect><rect class="rect" x="321.2452830188679" y="33.924528301886795" width="11.962264150943396" height="11.962264150943396" style=" animation-delay: 1.2068289747060175s; fill: rgba(134, 0, 179, 1.5); stroke: rgba(210, 77, 255, 0.75); "></rect><rect class="rect-off" x="320.2452830188679" y="48.886792452830186" width="13.962264150943396" height="13.962264150943396"></rect><rect class="rect" x="321.2452830188679" y="65.84905660377359" width="11.962264150943396" height="11.962264150943396" style=" animation-delay: 0.11265776886480139s; fill: rgba(134, 0, 179, 0.5); stroke: rgba(210, 77, 255, 0.25); "></rect><rect class="rect-off" x="320.2452830188679" y="80.81132075471697" width="13.962264150943396" height="13.962264150943396"></rect><rect class="rect" x="321.2452830188679" y="97.77358490566037" width="11.962264150943396" height="11.962264150943396" style=" animation-delay: 2.8690243750409854s; fill: rgba(134, 0, 179, 0.5); stroke: rgba(210, 77, 255, 0.25); "></rect><rect class="rect-off" x="336.20754716981133" y="1" width="13.962264150943396" height="13.962264150943396"></rect><rect class="rect-off" x="336.20754716981133" y="16.962264150943398" width="13.962264150943396" height="13.962264150943396"></rect><rect class="rect-off" x="336.20754716981133" y="32.924528301886795" width="13.962264150943396" height="13.962264150943396"></rect><rect class="rect" x="337.20754716981133" y="49.886792452830186" width="11.962264150943396" height="11.962264150943396" style=" animation-delay: 0.5757328743566854s; fill: rgba(134, 0, 179, 1); stroke: rgba(210, 77, 255, 0.5); "></rect><rect class="rect" x="337.20754716981133" y="65.84905660377359" width="11.962264150943396" height="11.962264150943396" style=" animation-delay: 1.9836732475690688s; fill: rgba(134, 0, 179, 1); stroke: rgba(210, 77, 255, 0.5); "></rect><rect class="rect" x="337.20754716981133" y="81.81132075471697" width="11.962264150943396" height="11.962264150943396" style=" animation-delay: 1.8746506082188996s; fill: rgba(134, 0, 179, 1); stroke: rgba(210, 77, 255, 0.5); "></rect><rect class="rect" x="337.20754716981133" y="97.77358490566037" width="11.962264150943396" height="11.962264150943396" style=" animation-delay: 0.6812149462590686s; fill: rgba(134, 0, 179, 1); stroke: rgba(210, 77, 255, 0.5); "></rect><rect class="rect" x="353.1698113207547" y="2" width="11.962264150943396" height="11.962264150943396" style=" animation-delay: 2.3683717619890423s; fill: rgba(134, 0, 179, 5); stroke: rgba(210, 77, 255, 2.5); "></rect><rect class="rect" x="353.1698113207547" y="17.962264150943398" width="11.962264150943396" height="11.962264150943396" style=" animation-delay: 2.0542686126982725s; fill: rgba(134, 0, 179, 3); stroke: rgba(210, 77, 255, 1.5); "></rect><rect class="rect" x="353.1698113207547" y="33.924528301886795" width="11.962264150943396" height="11.962264150943396" style=" animation-delay: 2.3822774935201148s; fill: rgba(134, 0, 179, 2); stroke: rgba(210, 77, 255, 1); "></rect><rect class="rect" x="353.1698113207547" y="49.886792452830186" width="11.962264150943396" height="11.962264150943396" style=" animation-delay: 1.3851371065945117s; fill: rgba(134, 0, 179, 1.5); stroke: rgba(210, 77, 255, 0.75); "></rect><rect class="rect-off" x="352.1698113207547" y="64.84905660377359" width="13.962264150943396" height="13.962264150943396"></rect><rect class="rect-off" x="352.1698113207547" y="80.81132075471697" width="13.962264150943396" height="13.962264150943396"></rect><rect class="rect-off" x="352.1698113207547" y="96.77358490566037" width="13.962264150943396" height="13.962264150943396"></rect><rect class="rect-off" x="368.1320754716981" y="1" width="13.962264150943396" height="13.962264150943396"></rect><rect class="rect-off" x="368.1320754716981" y="16.962264150943398" width="13.962264150943396" height="13.962264150943396"></rect><rect class="rect-off" x="368.1320754716981" y="32.924528301886795" width="13.962264150943396" height="13.962264150943396"></rect><rect class="rect-off" x="368.1320754716981" y="48.886792452830186" width="13.962264150943396" height="13.962264150943396"></rect><rect class="rect-off" x="368.1320754716981" y="64.84905660377359" width="13.962264150943396" height="13.962264150943396"></rect><rect class="rect-off" x="368.1320754716981" y="80.81132075471697" width="13.962264150943396" height="13.962264150943396"></rect><rect class="rect-off" x="368.1320754716981" y="96.77358490566037" width="13.962264150943396" height="13.962264150943396"></rect><rect class="rect-off" x="384.0943396226415" y="1" width="13.962264150943396" height="13.962264150943396"></rect><rect class="rect-off" x="384.0943396226415" y="16.962264150943398" width="13.962264150943396" height="13.962264150943396"></rect><rect class="rect-off" x="384.0943396226415" y="32.924528301886795" width="13.962264150943396" height="13.962264150943396"></rect><rect class="rect-off" x="384.0943396226415" y="48.886792452830186" width="13.962264150943396" height="13.962264150943396"></rect><rect class="rect-off" x="384.0943396226415" y="64.84905660377359" width="13.962264150943396" height="13.962264150943396"></rect><rect class="rect-off" x="384.0943396226415" y="80.81132075471697" width="13.962264150943396" height="13.962264150943396"></rect><rect class="rect" x="385.0943396226415" y="97.77358490566037" width="11.962264150943396" height="11.962264150943396" style=" animation-delay: 2.977823232362738s; fill: rgba(134, 0, 179, 1); stroke: rgba(210, 77, 255, 0.5); "></rect><rect class="rect" x="401.05660377358487" y="2" width="11.962264150943396" height="11.962264150943396" style=" animation-delay: 0.0680861071215495s; fill: rgba(134, 0, 179, 2); stroke: rgba(210, 77, 255, 1); "></rect><rect class="rect-off" x="400.05660377358487" y="16.962264150943398" width="13.962264150943396" height="13.962264150943396"></rect><rect class="rect" x="401.05660377358487" y="33.924528301886795" width="11.962264150943396" height="11.962264150943396" style=" animation-delay: 2.090823872586488s; fill: rgba(134, 0, 179, 0.5); stroke: rgba(210, 77, 255, 0.25); "></rect><rect class="rect" x="401.05660377358487" y="49.886792452830186" width="11.962264150943396" height="11.962264150943396" style=" animation-delay: 0.008101957500566082s; fill: rgba(134, 0, 179, 1.5); stroke: rgba(210, 77, 255, 0.75); "></rect><rect class="rect-off" x="400.05660377358487" y="64.84905660377359" width="13.962264150943396" height="13.962264150943396"></rect><rect class="rect" x="401.05660377358487" y="81.81132075471697" width="11.962264150943396" height="11.962264150943396" style=" animation-delay: 2.5808803200243267s; fill: rgba(134, 0, 179, 0.5); stroke: rgba(210, 77, 255, 0.25); "></rect><rect class="rect" x="401.05660377358487" y="97.77358490566037" width="11.962264150943396" height="11.962264150943396" style=" animation-delay: 2.4108456613599687s; fill: rgba(134, 0, 179, 0.5); stroke: rgba(210, 77, 255, 0.25); "></rect><rect class="rect" x="417.0188679245283" y="2" width="11.962264150943396" height="11.962264150943396" style=" animation-delay: 1.9124689214606165s; fill: rgba(134, 0, 179, 0.5); stroke: rgba(210, 77, 255, 0.25); "></rect><rect class="rect" x="417.0188679245283" y="17.962264150943398" width="11.962264150943396" height="11.962264150943396" style=" animation-delay: 0.39477764707599805s; fill: rgba(134, 0, 179, 1); stroke: rgba(210, 77, 255, 0.5); "></rect><rect class="rect" x="417.0188679245283" y="33.924528301886795" width="11.962264150943396" height="11.962264150943396" style=" animation-delay: 2.2474777362632237s; fill: rgba(134, 0, 179, 5); stroke: rgba(210, 77, 255, 2.5); "></rect><rect class="rect" x="417.0188679245283" y="49.886792452830186" width="11.962264150943396" height="11.962264150943396" style=" animation-delay: 2.490105374746478s; fill: rgba(134, 0, 179, 3.5); stroke: rgba(210, 77, 255, 1.75); "></rect><rect class="rect-off" x="416.0188679245283" y="64.84905660377359" width="13.962264150943396" height="13.962264150943396"></rect><rect class="rect" x="417.0188679245283" y="81.81132075471697" width="11.962264150943396" height="11.962264150943396" style=" animation-delay: 2.911971537096181s; fill: rgba(134, 0, 179, 3); stroke: rgba(210, 77, 255, 1.5); "></rect><rect class="rect" x="417.0188679245283" y="97.77358490566037" width="11.962264150943396" height="11.962264150943396" style=" animation-delay: 0.6389440668511324s; fill: rgba(134, 0, 179, 1.5); stroke: rgba(210, 77, 255, 0.75); "></rect><rect class="rect-off" x="431.9811320754717" y="1" width="13.962264150943396" height="13.962264150943396"></rect><rect class="rect" x="432.9811320754717" y="17.962264150943398" width="11.962264150943396" height="11.962264150943396" style=" animation-delay: 1.1576945803134582s; fill: rgba(134, 0, 179, 0.5); stroke: rgba(210, 77, 255, 0.25); "></rect><rect class="rect-off" x="431.9811320754717" y="32.924528301886795" width="13.962264150943396" height="13.962264150943396"></rect><rect class="rect-off" x="431.9811320754717" y="48.886792452830186" width="13.962264150943396" height="13.962264150943396"></rect><rect class="rect" x="432.9811320754717" y="65.84905660377359" width="11.962264150943396" height="11.962264150943396" style=" animation-delay: 1.2714880306446004s; fill: rgba(134, 0, 179, 1); stroke: rgba(210, 77, 255, 0.5); "></rect><rect class="rect-off" x="431.9811320754717" y="80.81132075471697" width="13.962264150943396" height="13.962264150943396"></rect><rect class="rect" x="432.9811320754717" y="97.77358490566037" width="11.962264150943396" height="11.962264150943396" style=" animation-delay: 2.1452768054135314s; fill: rgba(134, 0, 179, 1); stroke: rgba(210, 77, 255, 0.5); "></rect><rect class="rect-off" x="447.9433962264151" y="1" width="13.962264150943396" height="13.962264150943396"></rect><rect class="rect" x="448.9433962264151" y="17.962264150943398" width="11.962264150943396" height="11.962264150943396" style=" animation-delay: 2.2769433621250843s; fill: rgba(134, 0, 179, 0.5); stroke: rgba(210, 77, 255, 0.25); "></rect><rect class="rect" x="448.9433962264151" y="33.924528301886795" width="11.962264150943396" height="11.962264150943396" style=" animation-delay: 2.5782175045981264s; fill: rgba(134, 0, 179, 1.5); stroke: rgba(210, 77, 255, 0.75); "></rect><rect class="rect-off" x="447.9433962264151" y="48.886792452830186" width="13.962264150943396" height="13.962264150943396"></rect><rect class="rect-off" x="447.9433962264151" y="64.84905660377359" width="13.962264150943396" height="13.962264150943396"></rect><rect class="rect" x="448.9433962264151" y="81.81132075471697" width="11.962264150943396" height="11.962264150943396" style=" animation-delay: 1.3890850815638478s; fill: rgba(134, 0, 179, 0.5); stroke: rgba(210, 77, 255, 0.25); "></rect><rect class="rect" x="448.9433962264151" y="97.77358490566037" width="11.962264150943396" height="11.962264150943396" style=" animation-delay: 2.5751600654862488s; fill: rgba(134, 0, 179, 1.5); stroke: rgba(210, 77, 255, 0.75); "></rect><rect class="rect" x="464.90566037735846" y="2" width="11.962264150943396" height="11.962264150943396" style=" animation-delay: 2.336831479850182s; fill: rgba(134, 0, 179, 1); stroke: rgba(210, 77, 255, 0.5); "></rect><rect class="rect-off" x="463.90566037735846" y="16.962264150943398" width="13.962264150943396" height="13.962264150943396"></rect><rect class="rect-off" x="463.90566037735846" y="32.924528301886795" width="13.962264150943396" height="13.962264150943396"></rect><rect class="rect-off" x="463.90566037735846" y="48.886792452830186" width="13.962264150943396" height="13.962264150943396"></rect><rect class="rect-off" x="463.90566037735846" y="64.84905660377359" width="13.962264150943396" height="13.962264150943396"></rect><rect class="rect-off" x="463.90566037735846" y="80.81132075471697" width="13.962264150943396" height="13.962264150943396"></rect><rect class="rect-off" x="463.90566037735846" y="96.77358490566037" width="13.962264150943396" height="13.962264150943396"></rect><rect class="rect-off" x="479.8679245283019" y="1" width="13.962264150943396" height="13.962264150943396"></rect><rect class="rect-off" x="479.8679245283019" y="16.962264150943398" width="13.962264150943396" height="13.962264150943396"></rect><rect class="rect-off" x="479.8679245283019" y="32.924528301886795" width="13.962264150943396" height="13.962264150943396"></rect><rect class="rect-off" x="479.8679245283019" y="48.886792452830186" width="13.962264150943396" height="13.962264150943396"></rect><rect class="rect-off" x="479.8679245283019" y="64.84905660377359" width="13.962264150943396" height="13.962264150943396"></rect><rect class="rect-off" x="479.8679245283019" y="80.81132075471697" width="13.962264150943396" height="13.962264150943396"></rect><rect class="rect" x="480.8679245283019" y="97.77358490566037" width="11.962264150943396" height="11.962264150943396" style=" animation-delay: 0.7675299760800303s; fill: rgba(134, 0, 179, 0.5); stroke: rgba(210, 77, 255, 0.25); "></rect><rect class="rect-off" x="495.8301886792453" y="1" width="13.962264150943396" height="13.962264150943396"></rect><rect class="rect-off" x="495.8301886792453" y="16.962264150943398" width="13.962264150943396" height="13.962264150943396"></rect><rect class="rect-off" x="495.8301886792453" y="32.924528301886795" width="13.962264150943396" height="13.962264150943396"></rect><rect class="rect-off" x="495.8301886792453" y="48.886792452830186" width="13.962264150943396" height="13.962264150943396"></rect><rect class="rect-off" x="495.8301886792453" y="64.84905660377359" width="13.962264150943396" height="13.962264150943396"></rect><rect class="rect-off" x="495.8301886792453" y="80.81132075471697" width="13.962264150943396" height="13.962264150943396"></rect><rect class="rect-off" x="495.8301886792453" y="96.77358490566037" width="13.962264150943396" height="13.962264150943396"></rect><rect class="rect-off" x="511.79245283018867" y="1" width="13.962264150943396" height="13.962264150943396"></rect><rect class="rect-off" x="511.79245283018867" y="16.962264150943398" width="13.962264150943396" height="13.962264150943396"></rect><rect class="rect-off" x="511.79245283018867" y="32.924528301886795" width="13.962264150943396" height="13.962264150943396"></rect><rect class="rect-off" x="511.79245283018867" y="48.886792452830186" width="13.962264150943396" height="13.962264150943396"></rect><rect class="rect" x="512.7924528301887" y="65.84905660377359" width="11.962264150943396" height="11.962264150943396" style=" animation-delay: 2.364223949137452s; fill: rgba(134, 0, 179, 0.5); stroke: rgba(210, 77, 255, 0.25); "></rect><rect class="rect-off" x="511.79245283018867" y="80.81132075471697" width="13.962264150943396" height="13.962264150943396"></rect><rect class="rect-off" x="511.79245283018867" y="96.77358490566037" width="13.962264150943396" height="13.962264150943396"></rect><rect class="rect-off" x="527.7547169811321" y="1" width="13.962264150943396" height="13.962264150943396"></rect><rect class="rect-off" x="527.7547169811321" y="16.962264150943398" width="13.962264150943396" height="13.962264150943396"></rect><rect class="rect-off" x="527.7547169811321" y="32.924528301886795" width="13.962264150943396" height="13.962264150943396"></rect><rect class="rect-off" x="527.7547169811321" y="48.886792452830186" width="13.962264150943396" height="13.962264150943396"></rect><rect class="rect-off" x="527.7547169811321" y="64.84905660377359" width="13.962264150943396" height="13.962264150943396"></rect><rect class="rect-off" x="527.7547169811321" y="80.81132075471697" width="13.962264150943396" height="13.962264150943396"></rect><rect class="rect-off" x="527.7547169811321" y="96.77358490566037" width="13.962264150943396" height="13.962264150943396"></rect><rect class="rect-off" x="543.7169811320755" y="1" width="13.962264150943396" height="13.962264150943396"></rect><rect class="rect-off" x="543.7169811320755" y="16.962264150943398" width="13.962264150943396" height="13.962264150943396"></rect><rect class="rect-off" x="543.7169811320755" y="32.924528301886795" width="13.962264150943396" height="13.962264150943396"></rect><rect class="rect-off" x="543.7169811320755" y="48.886792452830186" width="13.962264150943396" height="13.962264150943396"></rect><rect class="rect-off" x="543.7169811320755" y="64.84905660377359" width="13.962264150943396" height="13.962264150943396"></rect><rect class="rect-off" x="543.7169811320755" y="80.81132075471697" width="13.962264150943396" height="13.962264150943396"></rect><rect class="rect-off" x="543.7169811320755" y="96.77358490566037" width="13.962264150943396" height="13.962264150943396"></rect><rect class="rect-off" x="559.6792452830189" y="1" width="13.962264150943396" height="13.962264150943396"></rect><rect class="rect-off" x="559.6792452830189" y="16.962264150943398" width="13.962264150943396" height="13.962264150943396"></rect><rect class="rect-off" x="559.6792452830189" y="32.924528301886795" width="13.962264150943396" height="13.962264150943396"></rect><rect class="rect-off" x="559.6792452830189" y="48.886792452830186" width="13.962264150943396" height="13.962264150943396"></rect><rect class="rect-off" x="559.6792452830189" y="64.84905660377359" width="13.962264150943396" height="13.962264150943396"></rect><rect class="rect-off" x="559.6792452830189" y="80.81132075471697" width="13.962264150943396" height="13.962264150943396"></rect><rect class="rect-off" x="559.6792452830189" y="96.77358490566037" width="13.962264150943396" height="13.962264150943396"></rect><rect class="rect-off" x="575.6415094339623" y="1" width="13.962264150943396" height="13.962264150943396"></rect><rect class="rect-off" x="575.6415094339623" y="16.962264150943398" width="13.962264150943396" height="13.962264150943396"></rect><rect class="rect" x="576.6415094339623" y="33.924528301886795" width="11.962264150943396" height="11.962264150943396" style=" animation-delay: 2.518842590308867s; fill: rgba(134, 0, 179, 2.5); stroke: rgba(210, 77, 255, 1.25); "></rect><rect class="rect-off" x="575.6415094339623" y="48.886792452830186" width="13.962264150943396" height="13.962264150943396"></rect><rect class="rect-off" x="575.6415094339623" y="64.84905660377359" width="13.962264150943396" height="13.962264150943396"></rect><rect class="rect" x="576.6415094339623" y="81.81132075471697" width="11.962264150943396" height="11.962264150943396" style=" animation-delay: 0.6404750932608296s; fill: rgba(134, 0, 179, 2.5); stroke: rgba(210, 77, 255, 1.25); "></rect><rect class="rect-off" x="575.6415094339623" y="96.77358490566037" width="13.962264150943396" height="13.962264150943396"></rect><rect class="rect" x="592.6037735849056" y="2" width="11.962264150943396" height="11.962264150943396" style=" animation-delay: 1.229204726453727s; fill: rgba(134, 0, 179, 1); stroke: rgba(210, 77, 255, 0.5); "></rect><rect class="rect" x="592.6037735849056" y="17.962264150943398" width="11.962264150943396" height="11.962264150943396" style=" animation-delay: 1.2852924595565887s; fill: rgba(134, 0, 179, 0.5); stroke: rgba(210, 77, 255, 0.25); "></rect><rect class="rect" x="592.6037735849056" y="33.924528301886795" width="11.962264150943396" height="11.962264150943396" style=" animation-delay: 1.1598953265249392s; fill: rgba(134, 0, 179, 3.5); stroke: rgba(210, 77, 255, 1.75); "></rect><rect class="rect" x="592.6037735849056" y="49.886792452830186" width="11.962264150943396" height="11.962264150943396" style=" animation-delay: 2.2084188579699413s; fill: rgba(134, 0, 179, 3); stroke: rgba(210, 77, 255, 1.5); "></rect><rect class="rect" x="592.6037735849056" y="65.84905660377359" width="11.962264150943396" height="11.962264150943396" style=" animation-delay: 0.12173110188511926s; fill: rgba(134, 0, 179, 1.5); stroke: rgba(210, 77, 255, 0.75); "></rect><rect class="rect" x="592.6037735849056" y="81.81132075471697" width="11.962264150943396" height="11.962264150943396" style=" animation-delay: 1.2910272519493255s; fill: rgba(134, 0, 179, 13); stroke: rgba(210, 77, 255, 6.5); "></rect><rect class="rect-off" x="591.6037735849056" y="96.77358490566037" width="13.962264150943396" height="13.962264150943396"></rect><rect class="rect-off" x="607.566037735849" y="1" width="13.962264150943396" height="13.962264150943396"></rect><rect class="rect" x="608.566037735849" y="17.962264150943398" width="11.962264150943396" height="11.962264150943396" style=" animation-delay: 1.8724994596602147s; fill: rgba(134, 0, 179, 1); stroke: rgba(210, 77, 255, 0.5); "></rect><rect class="rect-off" x="607.566037735849" y="32.924528301886795" width="13.962264150943396" height="13.962264150943396"></rect><rect class="rect-off" x="607.566037735849" y="48.886792452830186" width="13.962264150943396" height="13.962264150943396"></rect><rect class="rect" x="608.566037735849" y="65.84905660377359" width="11.962264150943396" height="11.962264150943396" style=" animation-delay: 2.1606474949723236s; fill: rgba(134, 0, 179, 1.5); stroke: rgba(210, 77, 255, 0.75); "></rect><rect class="rect" x="608.566037735849" y="81.81132075471697" width="11.962264150943396" height="11.962264150943396" style=" animation-delay: 1.1022439510402025s; fill: rgba(134, 0, 179, 2); stroke: rgba(210, 77, 255, 1); "></rect><rect class="rect" x="608.566037735849" y="97.77358490566037" width="11.962264150943396" height="11.962264150943396" style=" animation-delay: 0.9335144745769681s; fill: rgba(134, 0, 179, 0.5); stroke: rgba(210, 77, 255, 0.25); "></rect><rect class="rect-off" x="623.5283018867924" y="1" width="13.962264150943396" height="13.962264150943396"></rect><rect class="rect" x="624.5283018867924" y="17.962264150943398" width="11.962264150943396" height="11.962264150943396" style=" animation-delay: 1.2957488883334973s; fill: rgba(134, 0, 179, 1.5); stroke: rgba(210, 77, 255, 0.75); "></rect><rect class="rect" x="624.5283018867924" y="33.924528301886795" width="11.962264150943396" height="11.962264150943396" style=" animation-delay: 0.31756719128152633s; fill: rgba(134, 0, 179, 5.5); stroke: rgba(210, 77, 255, 2.75); "></rect><rect class="rect" x="624.5283018867924" y="49.886792452830186" width="11.962264150943396" height="11.962264150943396" style=" animation-delay: 2.139950212781351s; fill: rgba(134, 0, 179, 0.5); stroke: rgba(210, 77, 255, 0.25); "></rect><rect class="rect-off" x="623.5283018867924" y="64.84905660377359" width="13.962264150943396" height="13.962264150943396"></rect><rect class="rect" x="624.5283018867924" y="81.81132075471697" width="11.962264150943396" height="11.962264150943396" style=" animation-delay: 0.45391756340466527s; fill: rgba(134, 0, 179, 1); stroke: rgba(210, 77, 255, 0.5); "></rect><rect class="rect-off" x="623.5283018867924" y="96.77358490566037" width="13.962264150943396" height="13.962264150943396"></rect><rect class="rect-off" x="639.4905660377358" y="1" width="13.962264150943396" height="13.962264150943396"></rect><rect class="rect-off" x="639.4905660377358" y="16.962264150943398" width="13.962264150943396" height="13.962264150943396"></rect><rect class="rect-off" x="639.4905660377358" y="32.924528301886795" width="13.962264150943396" height="13.962264150943396"></rect><rect class="rect-off" x="639.4905660377358" y="48.886792452830186" width="13.962264150943396" height="13.962264150943396"></rect><rect class="rect" x="640.4905660377358" y="65.84905660377359" width="11.962264150943396" height="11.962264150943396" style=" animation-delay: 1.3147387058455164s; fill: rgba(134, 0, 179, 1.5); stroke: rgba(210, 77, 255, 0.75); "></rect><rect class="rect" x="640.4905660377358" y="81.81132075471697" width="11.962264150943396" height="11.962264150943396" style=" animation-delay: 2.99100625378573s; fill: rgba(134, 0, 179, 3); stroke: rgba(210, 77, 255, 1.5); "></rect><rect class="rect-off" x="639.4905660377358" y="96.77358490566037" width="13.962264150943396" height="13.962264150943396"></rect><rect class="rect" x="656.4528301886792" y="2" width="11.962264150943396" height="11.962264150943396" style=" animation-delay: 0.6734199689027971s; fill: rgba(134, 0, 179, 0.5); stroke: rgba(210, 77, 255, 0.25); "></rect><rect class="rect" x="656.4528301886792" y="17.962264150943398" width="11.962264150943396" height="11.962264150943396" style=" animation-delay: 2.005203161363066s; fill: rgba(134, 0, 179, 3); stroke: rgba(210, 77, 255, 1.5); "></rect><rect class="rect-off" x="655.4528301886792" y="32.924528301886795" width="13.962264150943396" height="13.962264150943396"></rect><rect class="rect-off" x="655.4528301886792" y="48.886792452830186" width="13.962264150943396" height="13.962264150943396"></rect><rect class="rect-off" x="655.4528301886792" y="64.84905660377359" width="13.962264150943396" height="13.962264150943396"></rect><rect class="rect-off" x="655.4528301886792" y="80.81132075471697" width="13.962264150943396" height="13.962264150943396"></rect><rect class="rect-off" x="655.4528301886792" y="96.77358490566037" width="13.962264150943396" height="13.962264150943396"></rect><rect class="rect-off" x="671.4150943396227" y="1" width="13.962264150943396" height="13.962264150943396"></rect><rect class="rect-off" x="671.4150943396227" y="16.962264150943398" width="13.962264150943396" height="13.962264150943396"></rect><rect class="rect-off" x="671.4150943396227" y="32.924528301886795" width="13.962264150943396" height="13.962264150943396"></rect><rect class="rect-off" x="671.4150943396227" y="48.886792452830186" width="13.962264150943396" height="13.962264150943396"></rect><rect class="rect" x="672.4150943396227" y="65.84905660377359" width="11.962264150943396" height="11.962264150943396" style=" animation-delay: 1.2713928195969824s; fill: rgba(134, 0, 179, 1.5); stroke: rgba(210, 77, 255, 0.75); "></rect><rect class="rect" x="672.4150943396227" y="81.81132075471697" width="11.962264150943396" height="11.962264150943396" style=" animation-delay: 1.8397533981468162s; fill: rgba(134, 0, 179, 2); stroke: rgba(210, 77, 255, 1); "></rect><rect class="rect-off" x="671.4150943396227" y="96.77358490566037" width="13.962264150943396" height="13.962264150943396"></rect><rect class="rect-off" x="687.377358490566" y="1" width="13.962264150943396" height="13.962264150943396"></rect><rect class="rect" x="688.377358490566" y="17.962264150943398" width="11.962264150943396" height="11.962264150943396" style=" animation-delay: 0.08302472846588849s; fill: rgba(134, 0, 179, 0.5); stroke: rgba(210, 77, 255, 0.25); "></rect><rect class="rect" x="688.377358490566" y="33.924528301886795" width="11.962264150943396" height="11.962264150943396" style=" animation-delay: 0.11794730552745558s; fill: rgba(134, 0, 179, 1); stroke: rgba(210, 77, 255, 0.5); "></rect><rect class="rect" x="688.377358490566" y="49.886792452830186" width="11.962264150943396" height="11.962264150943396" style=" animation-delay: 1.5793073937602033s; fill: rgba(134, 0, 179, 1); stroke: rgba(210, 77, 255, 0.5); "></rect><rect class="rect-off" x="687.377358490566" y="64.84905660377359" width="13.962264150943396" height="13.962264150943396"></rect><rect class="rect-off" x="687.377358490566" y="80.81132075471697" width="13.962264150943396" height="13.962264150943396"></rect><rect class="rect" x="688.377358490566" y="97.77358490566037" width="11.962264150943396" height="11.962264150943396" style=" animation-delay: 2.5607991232307685s; fill: rgba(134, 0, 179, 1); stroke: rgba(210, 77, 255, 0.5); "></rect><rect class="rect-off" x="703.3396226415094" y="1" width="13.962264150943396" height="13.962264150943396"></rect><rect class="rect" x="704.3396226415094" y="17.962264150943398" width="11.962264150943396" height="11.962264150943396" style=" animation-delay: 2.3560168444500924s; fill: rgba(134, 0, 179, 0.5); stroke: rgba(210, 77, 255, 0.25); "></rect><rect class="rect-off" x="703.3396226415094" y="32.924528301886795" width="13.962264150943396" height="13.962264150943396"></rect><rect class="rect" x="704.3396226415094" y="49.886792452830186" width="11.962264150943396" height="11.962264150943396" style=" animation-delay: 2.9457367334739706s; fill: rgba(134, 0, 179, 3); stroke: rgba(210, 77, 255, 1.5); "></rect><rect class="rect-off" x="703.3396226415094" y="64.84905660377359" width="13.962264150943396" height="13.962264150943396"></rect><rect class="rect-off" x="703.3396226415094" y="80.81132075471697" width="13.962264150943396" height="13.962264150943396"></rect><rect class="rect-off" x="703.3396226415094" y="96.77358490566037" width="13.962264150943396" height="13.962264150943396"></rect><rect class="rect-off" x="719.3018867924528" y="1" width="13.962264150943396" height="13.962264150943396"></rect><rect class="rect" x="720.3018867924528" y="17.962264150943398" width="11.962264150943396" height="11.962264150943396" style=" animation-delay: 0.39488127627826475s; fill: rgba(134, 0, 179, 2.5); stroke: rgba(210, 77, 255, 1.25); "></rect><rect class="rect-off" x="719.3018867924528" y="32.924528301886795" width="13.962264150943396" height="13.962264150943396"></rect><rect class="rect-off" x="719.3018867924528" y="48.886792452830186" width="13.962264150943396" height="13.962264150943396"></rect><rect class="rect-off" x="719.3018867924528" y="64.84905660377359" width="13.962264150943396" height="13.962264150943396"></rect><rect class="rect" x="720.3018867924528" y="81.81132075471697" width="11.962264150943396" height="11.962264150943396" style=" animation-delay: 1.9180324579392576s; fill: rgba(134, 0, 179, 0.5); stroke: rgba(210, 77, 255, 0.25); "></rect><rect class="rect" x="720.3018867924528" y="97.77358490566037" width="11.962264150943396" height="11.962264150943396" style=" animation-delay: 0.2840025193995377s; fill: rgba(134, 0, 179, 1); stroke: rgba(210, 77, 255, 0.5); "></rect><rect class="rect" x="736.2641509433962" y="2" width="11.962264150943396" height="11.962264150943396" style=" animation-delay: 2.7754613188221233s; fill: rgba(134, 0, 179, 2); stroke: rgba(210, 77, 255, 1); "></rect><rect class="rect-off" x="735.2641509433962" y="16.962264150943398" width="13.962264150943396" height="13.962264150943396"></rect><rect class="rect-off" x="735.2641509433962" y="32.924528301886795" width="13.962264150943396" height="13.962264150943396"></rect><rect class="rect-off" x="735.2641509433962" y="48.886792452830186" width="13.962264150943396" height="13.962264150943396"></rect><rect class="rect-off" x="735.2641509433962" y="64.84905660377359" width="13.962264150943396" height="13.962264150943396"></rect><rect class="rect-off" x="735.2641509433962" y="80.81132075471697" width="13.962264150943396" height="13.962264150943396"></rect><rect class="rect-off" x="735.2641509433962" y="96.77358490566037" width="13.962264150943396" height="13.962264150943396"></rect><rect class="rect-off" x="751.2264150943396" y="1" width="13.962264150943396" height="13.962264150943396"></rect><rect class="rect-off" x="751.2264150943396" y="16.962264150943398" width="13.962264150943396" height="13.962264150943396"></rect><rect class="rect-off" x="751.2264150943396" y="32.924528301886795" width="13.962264150943396" height="13.962264150943396"></rect><rect class="rect-off" x="751.2264150943396" y="48.886792452830186" width="13.962264150943396" height="13.962264150943396"></rect><rect class="rect-off" x="751.2264150943396" y="64.84905660377359" width="13.962264150943396" height="13.962264150943396"></rect><rect class="rect-off" x="751.2264150943396" y="80.81132075471697" width="13.962264150943396" height="13.962264150943396"></rect><rect class="rect-off" x="751.2264150943396" y="96.77358490566037" width="13.962264150943396" height="13.962264150943396"></rect><rect class="rect-off" x="767.188679245283" y="1" width="13.962264150943396" height="13.962264150943396"></rect><rect class="rect-off" x="767.188679245283" y="16.962264150943398" width="13.962264150943396" height="13.962264150943396"></rect><rect class="rect-off" x="767.188679245283" y="32.924528301886795" width="13.962264150943396" height="13.962264150943396"></rect><rect class="rect-off" x="767.188679245283" y="48.886792452830186" width="13.962264150943396" height="13.962264150943396"></rect><rect class="rect-off" x="767.188679245283" y="64.84905660377359" width="13.962264150943396" height="13.962264150943396"></rect><rect class="rect" x="768.188679245283" y="81.81132075471697" width="11.962264150943396" height="11.962264150943396" style=" animation-delay: 2.065223432359403s; fill: rgba(134, 0, 179, 1); stroke: rgba(210, 77, 255, 0.5); "></rect><rect class="rect" x="768.188679245283" y="97.77358490566037" width="11.962264150943396" height="11.962264150943396" style=" animation-delay: 2.3465007238354896s; fill: rgba(134, 0, 179, 2); stroke: rgba(210, 77, 255, 1); "></rect><rect class="rect" x="784.1509433962264" y="2" width="11.962264150943396" height="11.962264150943396" style=" animation-delay: 2.838961794419088s; fill: rgba(134, 0, 179, 1); stroke: rgba(210, 77, 255, 0.5); "></rect><rect class="rect-off" x="783.1509433962264" y="16.962264150943398" width="13.962264150943396" height="13.962264150943396"></rect><rect class="rect" x="784.1509433962264" y="33.924528301886795" width="11.962264150943396" height="11.962264150943396" style=" animation-delay: 1.6207218247464754s; fill: rgba(134, 0, 179, 1); stroke: rgba(210, 77, 255, 0.5); "></rect><rect class="rect-off" x="783.1509433962264" y="48.886792452830186" width="13.962264150943396" height="13.962264150943396"></rect><rect class="rect-off" x="783.1509433962264" y="64.84905660377359" width="13.962264150943396" height="13.962264150943396"></rect><rect class="rect-off" x="783.1509433962264" y="80.81132075471697" width="13.962264150943396" height="13.962264150943396"></rect><rect class="rect-off" x="783.1509433962264" y="96.77358490566037" width="13.962264150943396" height="13.962264150943396"></rect><rect class="rect-off" x="799.1132075471697" y="1" width="13.962264150943396" height="13.962264150943396"></rect><rect class="rect-off" x="799.1132075471697" y="16.962264150943398" width="13.962264150943396" height="13.962264150943396"></rect><rect class="rect" x="800.1132075471697" y="33.924528301886795" width="11.962264150943396" height="11.962264150943396" style=" animation-delay: 1.0015869775766653s; fill: rgba(134, 0, 179, 4.5); stroke: rgba(210, 77, 255, 2.25); "></rect><rect class="rect" x="800.1132075471697" y="49.886792452830186" width="11.962264150943396" height="11.962264150943396" style=" animation-delay: 0.06625015275188417s; fill: rgba(134, 0, 179, 2.5); stroke: rgba(210, 77, 255, 1.25); "></rect><rect class="rect" x="800.1132075471697" y="65.84905660377359" width="11.962264150943396" height="11.962264150943396" style=" animation-delay: 0.5187898230776853s; fill: rgba(134, 0, 179, 3.5); stroke: rgba(210, 77, 255, 1.75); "></rect><rect class="rect" x="800.1132075471697" y="81.81132075471697" width="11.962264150943396" height="11.962264150943396" style=" animation-delay: 0.44623627508381225s; fill: rgba(134, 0, 179, 1); stroke: rgba(210, 77, 255, 0.5); "></rect><rect class="rect-off" x="799.1132075471697" y="96.77358490566037" width="13.962264150943396" height="13.962264150943396"></rect><rect class="rect-off" x="815.0754716981132" y="1" width="13.962264150943396" height="13.962264150943396"></rect><rect class="rect" x="816.0754716981132" y="17.962264150943398" width="11.962264150943396" height="11.962264150943396" style=" animation-delay: 1.822274054144974s; fill: rgba(134, 0, 179, 2.5); stroke: rgba(210, 77, 255, 1.25); "></rect><rect class="rect" x="816.0754716981132" y="33.924528301886795" width="11.962264150943396" height="11.962264150943396" style=" animation-delay: 0.20049214627701128s; fill: rgba(134, 0, 179, 1.5); stroke: rgba(210, 77, 255, 0.75); "></rect><rect class="rect-off" x="815.0754716981132" y="48.886792452830186" width="13.962264150943396" height="13.962264150943396"></rect><rect class="rect" x="816.0754716981132" y="65.84905660377359" width="11.962264150943396" height="11.962264150943396" style=" animation-delay: 0.9922552828918156s; fill: rgba(134, 0, 179, 2.5); stroke: rgba(210, 77, 255, 1.25); "></rect><rect class="rect" x="816.0754716981132" y="81.81132075471697" width="11.962264150943396" height="11.962264150943396" style=" animation-delay: 1.4855819578962939s; fill: rgba(134, 0, 179, 8.5); stroke: rgba(210, 77, 255, 4.25); "></rect><rect class="rect" x="816.0754716981132" y="97.77358490566037" width="11.962264150943396" height="11.962264150943396" style=" animation-delay: 1.5020430082528056s; fill: rgba(134, 0, 179, 2.5); stroke: rgba(210, 77, 255, 1.25); "></rect><rect class="rect-off" x="831.0377358490566" y="1" width="13.962264150943396" height="13.962264150943396"></rect><rect class="rect" x="832.0377358490566" y="17.962264150943398" width="11.962264150943396" height="11.962264150943396" style=" animation-delay: 2.871510045432694s; fill: rgba(134, 0, 179, 4); stroke: rgba(210, 77, 255, 2); "></rect></svg>